<svg xmlns="http://www.w3.org/2000/svg" x="0" y="0" xml:space="preserve" width="140.1" height="35.1"><style>.st2{enable-background:new}.st3{fill:#fff}</style><path fill="#3c9ad5" d="M69.5 0H140v35H69.5z"/><path fill="#3bc4f3" d="M.1 0h69.4v35H.1z"/><g class="st2"><path class="st3" d="M19.4 18.2H16v3.6h-1.4v-8.5h5.5v1.1h-4V17h3.4l-.1 1.2zm5.3 3.6h-1.4v-8.5h1.4v8.5zm6.8-5.3l1.8-3.2H35l-2.6 4.2 2.7 4.3h-1.7l-1.9-3.2-1.9 3.2H28l2.7-4.3-2.7-4.2h1.7l1.8 3.2zM42.9 18h-3.3v2.7h3.9v1.1h-5.4v-8.5h5.3v1.1h-3.9v2.4h3.3l.1 1.2zm3.9 3.8v-8.5h2.8c1.1 0 2 .3 2.6 1 .6.7 1 1.5 1 2.6v1.3c0 1.1-.3 1.9-1 2.6-.7.7-1.6 1-2.6 1h-2.8zm1.4-7.3v6.3h1.4c.7 0 1.2-.2 1.6-.7.4-.5.6-1.1.6-1.8V17c0-.7-.2-1.3-.6-1.8-.4-.5-.9-.7-1.6-.7h-1.4z"/></g><g class="st2"><path class="st3" d="M91.4 18.1c.3.4.4.8.4 1.3 0 .7-.3 1.3-.9 1.7-.6.4-1.4.6-2.6.6h-4.5v-8.4h4.3c1.1 0 1.9.2 2.4.6.6.4.8.9.8 1.6 0 .4-.1.8-.3 1.1-.2.3-.5.6-.8.8.5.1.9.4 1.2.7zm-5.3-3v1.6h1.6c.8 0 1.2-.3 1.2-.8s-.4-.8-1.2-.8h-1.6zm3.3 4.1c0-.6-.4-.9-1.2-.9h-2V20h2c.8 0 1.2-.3 1.2-.8zm6.6 1.7c-.7-.7-1-1.6-1-2.9v-4.7h2.4v4.6c0 1.3.5 2 1.6 2s1.6-.7 1.6-2v-4.6h2.3V18c0 1.2-.3 2.2-1 2.9-.7.7-1.7 1-2.9 1s-2.3-.3-3-1zm16.1-3.5h2.1v3.5c-.5.3-1 .6-1.7.8-.6.2-1.2.3-1.9.3-.9 0-1.7-.2-2.4-.6-.7-.4-1.3-.9-1.7-1.6-.4-.7-.6-1.4-.6-2.3s.2-1.6.6-2.3c.4-.7 1-1.2 1.7-1.6.7-.4 1.5-.6 2.4-.6.8 0 1.5.1 2.1.4.6.3 1.1.6 1.6 1.1l-1.5 1.4c-.6-.6-1.2-.9-2-.9-.7 0-1.3.2-1.7.7-.4.4-.7 1-.7 1.7 0 .5.1.9.3 1.2.2.3.5.6.8.9.4.2.8.3 1.2.3.5 0 .9-.1 1.3-.3l.1-2.1zm6.4 4.3c-.6-.2-1.2-.4-1.6-.7l.8-1.8c.4.2.8.4 1.3.6.5.2 1 .2 1.5.2.9 0 1.4-.2 1.4-.7 0-.2-.1-.4-.4-.5s-.7-.2-1.3-.4c-.6-.1-1.2-.3-1.6-.4-.4-.2-.8-.4-1.1-.8s-.5-.8-.5-1.4c0-.5.1-1 .4-1.4.3-.4.7-.7 1.3-1 .6-.2 1.2-.4 2-.4.6 0 1.1.1 1.6.2s1 .3 1.4.5l-.7 1.8c-.8-.4-1.6-.6-2.3-.6-.5 0-.8.1-1 .2-.2.1-.3.3-.3.5s.1.4.4.5c.3.1.7.2 1.2.3.6.1 1.2.3 1.6.4.4.1.8.4 1.1.7.3.3.5.8.5 1.4 0 .5-.1 1-.4 1.4s-.7.7-1.3 1c-.6.2-1.2.4-2 .4-.7.2-1.3.1-2 0z"/></g></svg>