<?xml version="1.0" encoding="UTF-8"?>
<!DOCTYPE svg PUBLIC "-//W3C//DTD SVG 1.1//EN" "http://www.w3.org/Graphics/SVG/1.1/DTD/svg11.dtd">
<!-- Creator: CorelDRAW -->
<svg xmlns="http://www.w3.org/2000/svg" xml:space="preserve" width="320.105mm" height="130.05mm" style="shape-rendering:geometricPrecision; text-rendering:geometricPrecision; image-rendering:optimizeQuality; fill-rule:evenodd; clip-rule:evenodd"
viewBox="0 0 320.105 130.05"
 xmlns:xlink="http://www.w3.org/1999/xlink">
 <defs>
  <style type="text/css">
   <![CDATA[
    .str0 {stroke:white;stroke-width:0.0762}
    .fil1 {fill:#1F1A17}
    .fil0 {fill:#DA251D}
   ]]>
  </style>
 </defs>
 <g id="Layer_x0020_1">
  <metadata id="CorelCorpID_0Corel-Layer"/>
  <g id="_88481328">
   <polygon id="_88481160" class="fil0 str0" points="290.038,109.983 300.067,109.983 300.067,120.012 290.038,120.012 "/>
   <polygon id="_88481952" class="fil0 str0" points="270.038,109.983 280.067,109.983 280.067,120.012 270.038,120.012 "/>
   <polygon id="_88481208" class="fil0 str0" points="260.038,109.983 270.067,109.983 270.067,120.012 260.038,120.012 "/>
   <polygon id="_88481544" class="fil0 str0" points="220.038,109.983 230.067,109.983 230.067,120.012 220.038,120.012 "/>
   <polygon id="_88482264" class="fil0 str0" points="210.038,109.983 220.067,109.983 220.067,120.012 210.038,120.012 "/>
   <polygon id="_88482624" class="fil0 str0" points="200.038,109.983 210.067,109.983 210.067,120.012 200.038,120.012 "/>
   <polygon id="_88482840" class="fil0 str0" points="160.038,109.983 170.067,109.983 170.067,120.012 160.038,120.012 "/>
   <polygon id="_88483056" class="fil0 str0" points="150.038,109.983 160.067,109.983 160.067,120.012 150.038,120.012 "/>
   <polygon id="_88482480" class="fil0 str0" points="130.038,109.983 140.067,109.983 140.067,120.012 130.038,120.012 "/>
   <polygon id="_88482816" class="fil0 str0" points="100.038,109.983 110.067,109.983 110.067,120.012 100.038,120.012 "/>
   <polygon id="_88482144" class="fil0 str0" points="90.0381,109.983 100.067,109.983 100.067,120.012 90.0381,120.012 "/>
   <polygon id="_88482456" class="fil0 str0" points="60.0381,109.983 70.0666,109.983 70.0666,120.012 60.0381,120.012 "/>
   <polygon id="_88482672" class="fil0 str0" points="50.0381,109.983 60.0666,109.983 60.0666,120.012 50.0381,120.012 "/>
   <polygon id="_11056608" class="fil0 str0" points="40.0381,109.983 50.0666,109.983 50.0666,120.012 40.0381,120.012 "/>
   <polygon id="_11056632" class="fil0 str0" points="10.0381,109.983 20.0666,109.983 20.0666,120.012 10.0381,120.012 "/>
   <polygon id="_11056656" class="fil0 str0" points="0.0381,109.983 10.0666,109.983 10.0666,120.012 0.0381,120.012 "/>
   <polygon id="_11056728" class="fil0 str0" points="300.038,99.9831 310.067,99.9831 310.067,110.012 300.038,110.012 "/>
   <polygon id="_11056800" class="fil0 str0" points="290.038,99.9831 300.067,99.9831 300.067,110.012 290.038,110.012 "/>
   <polygon id="_11056920" class="fil0 str0" points="280.038,99.9831 290.067,99.9831 290.067,110.012 280.038,110.012 "/>
   <polygon id="_11057016" class="fil0 str0" points="260.038,99.9831 270.067,99.9831 270.067,110.012 260.038,110.012 "/>
   <polygon id="_11057088" class="fil0 str0" points="250.038,99.9831 260.067,99.9831 260.067,110.012 250.038,110.012 "/>
   <polygon id="_11057160" class="fil0 str0" points="230.038,99.9831 240.067,99.9831 240.067,110.012 230.038,110.012 "/>
   <polygon id="_11057232" class="fil0 str0" points="220.038,99.9831 230.067,99.9831 230.067,110.012 220.038,110.012 "/>
   <polygon id="_11057304" class="fil0 str0" points="200.038,99.9831 210.067,99.9831 210.067,110.012 200.038,110.012 "/>
   <polygon id="_11057376" class="fil0 str0" points="190.038,99.9831 200.067,99.9831 200.067,110.012 190.038,110.012 "/>
   <polygon id="_11057448" class="fil0 str0" points="170.038,99.9831 180.067,99.9831 180.067,110.012 170.038,110.012 "/>
   <polygon id="_11057520" class="fil0 str0" points="160.038,99.9831 170.067,99.9831 170.067,110.012 160.038,110.012 "/>
   <polygon id="_11057592" class="fil0 str0" points="140.038,99.9831 150.067,99.9831 150.067,110.012 140.038,110.012 "/>
   <polygon id="_11057664" class="fil0 str0" points="130.038,99.9831 140.067,99.9831 140.067,110.012 130.038,110.012 "/>
   <polygon id="_11057736" class="fil0 str0" points="120.038,99.9831 130.067,99.9831 130.067,110.012 120.038,110.012 "/>
   <polygon id="_11057808" class="fil0 str0" points="90.0381,99.9831 100.067,99.9831 100.067,110.012 90.0381,110.012 "/>
   <polygon id="_11057880" class="fil0 str0" points="80.0381,99.9831 90.0666,99.9831 90.0666,110.012 80.0381,110.012 "/>
   <polygon id="_11057952" class="fil0 str0" points="50.0381,99.9831 60.0666,99.9831 60.0666,110.012 50.0381,110.012 "/>
   <polygon id="_11058024" class="fil0 str0" points="20.0381,99.9831 30.0666,99.9831 30.0666,110.012 20.0381,110.012 "/>
   <polygon id="_11058096" class="fil0 str0" points="10.0381,99.9831 20.0666,99.9831 20.0666,110.012 10.0381,110.012 "/>
   <polygon id="_11058168" class="fil0 str0" points="310.038,89.9831 320.067,89.9831 320.067,100.012 310.038,100.012 "/>
   <polygon id="_11058240" class="fil0 str0" points="300.038,89.9831 310.067,89.9831 310.067,100.012 300.038,100.012 "/>
   <polygon id="_11058312" class="fil0 str0" points="290.038,89.9831 300.067,89.9831 300.067,100.012 290.038,100.012 "/>
   <polygon id="_11058384" class="fil0 str0" points="270.038,89.9831 280.067,89.9831 280.067,100.012 270.038,100.012 "/>
   <polygon id="_11058456" class="fil0 str0" points="250.038,89.9831 260.067,89.9831 260.067,100.012 250.038,100.012 "/>
   <polygon id="_11058528" class="fil0 str0" points="240.038,89.9831 250.067,89.9831 250.067,100.012 240.038,100.012 "/>
   <polygon id="_11058600" class="fil0 str0" points="230.038,89.9831 240.067,89.9831 240.067,100.012 230.038,100.012 "/>
   <polygon id="_11058672" class="fil0 str0" points="210.038,89.9831 220.067,89.9831 220.067,100.012 210.038,100.012 "/>
   <polygon id="_11058744" class="fil0 str0" points="190.038,89.9831 200.067,89.9831 200.067,100.012 190.038,100.012 "/>
   <polygon id="_11058816" class="fil0 str0" points="180.038,89.9831 190.067,89.9831 190.067,100.012 180.038,100.012 "/>
   <polygon id="_11058888" class="fil0 str0" points="170.038,89.9831 180.067,89.9831 180.067,100.012 170.038,100.012 "/>
   <polygon id="_11058960" class="fil0 str0" points="150.038,89.9831 160.067,89.9831 160.067,100.012 150.038,100.012 "/>
   <polygon id="_11059032" class="fil0 str0" points="130.038,89.9831 140.067,89.9831 140.067,100.012 130.038,100.012 "/>
   <polygon id="_11059104" class="fil0 str0" points="120.038,89.9831 130.067,89.9831 130.067,100.012 120.038,100.012 "/>
   <polygon id="_11059176" class="fil0 str0" points="110.038,89.9831 120.067,89.9831 120.067,100.012 110.038,100.012 "/>
   <polygon id="_11059248" class="fil0 str0" points="80.0381,89.9831 90.0666,89.9831 90.0666,100.012 80.0381,100.012 "/>
   <polygon id="_11059320" class="fil0 str0" points="70.0381,89.9831 80.0666,89.9831 80.0666,100.012 70.0381,100.012 "/>
   <polygon id="_11059392" class="fil0 str0" points="30.0381,89.9831 40.0666,89.9831 40.0666,100.012 30.0381,100.012 "/>
   <polygon id="_11059464" class="fil0 str0" points="20.0381,89.9831 30.0666,89.9831 30.0666,100.012 20.0381,100.012 "/>
   <polygon id="_88660672" class="fil0 str0" points="280.038,119.983 290.067,119.983 290.067,130.012 280.038,130.012 "/>
   <polygon id="_88659448" class="fil0 str0" points="270.038,119.983 280.067,119.983 280.067,130.012 270.038,130.012 "/>
   <polygon id="_88659568" class="fil1 str0" points="240.038,119.983 250.067,119.983 250.067,130.012 240.038,130.012 "/>
   <polygon id="_88660288" class="fil0 str0" points="210.038,119.983 220.067,119.983 220.067,130.012 210.038,130.012 "/>
   <polygon id="_88660072" class="fil1 str0" points="180.038,119.983 190.067,119.983 190.067,130.012 180.038,130.012 "/>
   <polygon id="_88660000" class="fil0 str0" points="150.038,119.983 160.067,119.983 160.067,130.012 150.038,130.012 "/>
   <polygon id="_88659832" class="fil0 str0" points="140.038,119.983 150.067,119.983 150.067,130.012 140.038,130.012 "/>
   <polygon id="_88660192" class="fil0 str0" points="100.038,119.983 110.067,119.983 110.067,130.012 100.038,130.012 "/>
   <polygon id="_88659760" class="fil0 str0" points="70.0381,119.983 80.0666,119.983 80.0666,130.012 70.0381,130.012 "/>
   <polygon id="_88659592" class="fil0 str0" points="60.0381,119.983 70.0666,119.983 70.0666,130.012 60.0381,130.012 "/>
   <polygon id="_88660552" class="fil0 str0" points="40.0381,119.983 50.0666,119.983 50.0666,130.012 40.0381,130.012 "/>
   <polygon id="_88659256" class="fil0 str0" points="30.0381,119.983 40.0666,119.983 40.0666,130.012 30.0381,130.012 "/>
   <polygon id="_88660576" class="fil0 str0" points="0.0381,119.983 10.0666,119.983 10.0666,130.012 0.0381,130.012 "/>
   <polygon id="_88659328" class="fil0 str0" points="310.038,69.9617 320.067,69.9617 320.067,79.9591 310.038,79.9591 "/>
   <polygon id="_88659064" class="fil0 str0" points="290.038,69.9617 300.067,69.9617 300.067,79.9591 290.038,79.9591 "/>
   <polygon id="_88659400" class="fil0 str0" points="270.038,69.9617 280.067,69.9617 280.067,79.9591 270.038,79.9591 "/>
   <polygon id="_88659544" class="fil0 str0" points="260.038,69.9617 270.067,69.9617 270.067,79.9591 260.038,79.9591 "/>
   <polygon id="_88659784" class="fil0 str0" points="250.038,69.9617 260.067,69.9617 260.067,79.9591 250.038,79.9591 "/>
   <polygon id="_88660168" class="fil0 str0" points="230.038,69.9617 240.067,69.9617 240.067,79.9591 230.038,79.9591 "/>
   <polygon id="_88659856" class="fil0 str0" points="220.038,69.9617 230.067,69.9617 230.067,79.9591 220.038,79.9591 "/>
   <polygon id="_88659976" class="fil0 str0" points="210.038,69.9617 220.067,69.9617 220.067,79.9591 210.038,79.9591 "/>
   <polygon id="_88659376" class="fil0 str0" points="200.038,69.9617 210.067,69.9617 210.067,79.9591 200.038,79.9591 "/>
   <polygon id="_88540968" class="fil0 str0" points="190.038,69.9617 200.067,69.9617 200.067,79.9591 190.038,79.9591 "/>
   <polygon id="_88539720" class="fil0 str0" points="170.038,69.9617 180.067,69.9617 180.067,79.9591 170.038,79.9591 "/>
   <polygon id="_88539648" class="fil0 str0" points="160.038,69.9617 170.067,69.9617 170.067,79.9591 160.038,79.9591 "/>
   <polygon id="_88541160" class="fil0 str0" points="150.038,69.9617 160.067,69.9617 160.067,79.9591 150.038,79.9591 "/>
   <polygon id="_88541256" class="fil0 str0" points="130.038,69.9617 140.067,69.9617 140.067,79.9591 130.038,79.9591 "/>
   <polygon id="_88541112" class="fil0 str0" points="110.038,69.9617 120.067,69.9617 120.067,79.9591 110.038,79.9591 "/>
   <polygon id="_88541136" class="fil0 str0" points="100.038,69.9617 110.067,69.9617 110.067,79.9591 100.038,79.9591 "/>
   <polygon id="_88539960" class="fil0 str0" points="90.0381,69.9617 100.067,69.9617 100.067,79.9591 90.0381,79.9591 "/>
   <polygon id="_88540080" class="fil0 str0" points="60.0381,69.9617 70.0666,69.9617 70.0666,79.9591 60.0381,79.9591 "/>
   <polygon id="_88540008" class="fil0 str0" points="40.0381,69.9617 50.0666,69.9617 50.0666,79.9591 40.0381,79.9591 "/>
   <polygon id="_88540128" class="fil0 str0" points="10.0381,69.9617 20.0666,69.9617 20.0666,79.9591 10.0381,79.9591 "/>
   <polygon id="_88541016" class="fil0 str0" points="0.0381,69.9617 10.0666,69.9617 10.0666,79.9591 0.0381,79.9591 "/>
   <polygon id="_88539600" class="fil0 str0" points="310.038,30.0354 320.067,30.0354 320.067,40.0329 310.038,40.0329 "/>
   <polygon id="_88539696" class="fil0 str0" points="300.038,30.0354 310.067,30.0354 310.067,40.0329 300.038,40.0329 "/>
   <polygon id="_88539576" class="fil0 str0" points="290.038,30.0354 300.067,30.0354 300.067,40.0329 290.038,40.0329 "/>
   <polygon id="_88539840" class="fil0 str0" points="270.038,30.0354 280.067,30.0354 280.067,40.0329 270.038,40.0329 "/>
   <polygon id="_88540920" class="fil0 str0" points="250.038,30.0354 260.067,30.0354 260.067,40.0329 250.038,40.0329 "/>
   <polygon id="_88539528" class="fil0 str0" points="240.038,30.0354 250.067,30.0354 250.067,40.0329 240.038,40.0329 "/>
   <polygon id="_88812152" class="fil0 str0" points="230.038,30.0354 240.067,30.0354 240.067,40.0329 230.038,40.0329 "/>
   <polygon id="_88811960" class="fil0 str0" points="210.038,30.0354 220.067,30.0354 220.067,40.0329 210.038,40.0329 "/>
   <polygon id="_88812536" class="fil0 str0" points="190.038,30.0354 200.067,30.0354 200.067,40.0329 190.038,40.0329 "/>
   <polygon id="_88812752" class="fil0 str0" points="180.038,30.0354 190.067,30.0354 190.067,40.0329 180.038,40.0329 "/>
   <polygon id="_88812968" class="fil0 str0" points="170.038,30.0354 180.067,30.0354 180.067,40.0329 170.038,40.0329 "/>
   <polygon id="_88813136" class="fil0 str0" points="150.038,30.0354 160.067,30.0354 160.067,40.0329 150.038,40.0329 "/>
   <polygon id="_88812920" class="fil0 str0" points="130.038,30.0354 140.067,30.0354 140.067,40.0329 130.038,40.0329 "/>
   <polygon id="_88812704" class="fil0 str0" points="120.038,30.0354 130.067,30.0354 130.067,40.0329 120.038,40.0329 "/>
   <polygon id="_88812488" class="fil0 str0" points="110.038,30.0354 120.067,30.0354 120.067,40.0329 110.038,40.0329 "/>
   <polygon id="_88812296" class="fil0 str0" points="80.0381,30.0354 90.0666,30.0354 90.0666,40.0329 80.0381,40.0329 "/>
   <polygon id="_88812200" class="fil0 str0" points="70.0381,30.0354 80.0666,30.0354 80.0666,40.0329 70.0381,40.0329 "/>
   <polygon id="_88812320" class="fil0 str0" points="30.0381,30.0354 40.0666,30.0354 40.0666,40.0329 30.0381,40.0329 "/>
   <polygon id="_88812104" class="fil0 str0" points="20.0381,30.0354 30.0666,30.0354 30.0666,40.0329 20.0381,40.0329 "/>
   <polygon id="_88812392" class="fil0 str0" points="310.038,50.0621 320.067,50.0621 320.067,60.0595 310.038,60.0595 "/>
   <polygon id="_88812584" class="fil0 str0" points="290.038,50.0621 300.067,50.0621 300.067,60.0595 290.038,60.0595 "/>
   <polygon id="_88812800" class="fil0 str0" points="270.038,50.0621 280.067,50.0621 280.067,60.0595 270.038,60.0595 "/>
   <polygon id="_88813016" class="fil0 str0" points="260.038,50.0621 270.067,50.0621 270.067,60.0595 260.038,60.0595 "/>
   <polygon id="_11042224" class="fil0 str0" points="250.038,50.0621 260.067,50.0621 260.067,60.0595 250.038,60.0595 "/>
   <polygon id="_11042152" class="fil0 str0" points="230.038,50.0621 240.067,50.0621 240.067,60.0595 230.038,60.0595 "/>
   <polygon id="_11042080" class="fil0 str0" points="220.038,50.0621 230.067,50.0621 230.067,60.0595 220.038,60.0595 "/>
   <polygon id="_11042008" class="fil0 str0" points="210.038,50.0621 220.067,50.0621 220.067,60.0595 210.038,60.0595 "/>
   <polygon id="_11041936" class="fil0 str0" points="200.038,50.0621 210.067,50.0621 210.067,60.0595 200.038,60.0595 "/>
   <polygon id="_11041864" class="fil0 str0" points="190.038,50.0621 200.067,50.0621 200.067,60.0595 190.038,60.0595 "/>
   <polygon id="_11041744" class="fil0 str0" points="170.038,50.0621 180.067,50.0621 180.067,60.0595 170.038,60.0595 "/>
   <polygon id="_11041672" class="fil0 str0" points="160.038,50.0621 170.067,50.0621 170.067,60.0595 160.038,60.0595 "/>
   <polygon id="_11041600" class="fil0 str0" points="150.038,50.0621 160.067,50.0621 160.067,60.0595 150.038,60.0595 "/>
   <polygon id="_11041552" class="fil0 str0" points="130.038,50.0621 140.067,50.0621 140.067,60.0595 130.038,60.0595 "/>
   <polygon id="_11042728" class="fil0 str0" points="110.038,50.0621 120.067,50.0621 120.067,60.0595 110.038,60.0595 "/>
   <polygon id="_11041480" class="fil0 str0" points="100.038,50.0621 110.067,50.0621 110.067,60.0595 100.038,60.0595 "/>
   <polygon id="_11042752" class="fil0 str0" points="90.0381,50.0621 100.067,50.0621 100.067,60.0595 90.0381,60.0595 "/>
   <polygon id="_11042800" class="fil0 str0" points="60.0381,50.0621 70.0666,50.0621 70.0666,60.0595 60.0381,60.0595 "/>
   <polygon id="_11042680" class="fil0 str0" points="40.0381,50.0621 50.0666,50.0621 50.0666,60.0595 40.0381,60.0595 "/>
   <polygon id="_83655656" class="fil0 str0" points="10.0381,50.0621 20.0666,50.0621 20.0666,60.0595 10.0381,60.0595 "/>
   <polygon id="_83655680" class="fil0 str0" points="0.0381,50.0621 10.0666,50.0621 10.0666,60.0595 0.0381,60.0595 "/>
   <polygon id="_83655344" class="fil0 str0" points="310.038,40.0621 320.067,40.0621 320.067,50.0595 310.038,50.0595 "/>
   <polygon id="_83655560" class="fil0 str0" points="300.038,40.0621 310.067,40.0621 310.067,50.0595 300.038,50.0595 "/>
   <polygon id="_83655752" class="fil0 str0" points="280.038,40.0621 290.067,40.0621 290.067,50.0595 280.038,50.0595 "/>
   <polygon id="_83656040" class="fil0 str0" points="260.038,40.0621 270.067,40.0621 270.067,50.0595 260.038,50.0595 "/>
   <polygon id="_83655800" class="fil0 str0" points="250.038,40.0621 260.067,40.0621 260.067,50.0595 250.038,50.0595 "/>
   <polygon id="_83655848" class="fil0 str0" points="240.038,40.0621 250.067,40.0621 250.067,50.0595 240.038,50.0595 "/>
   <polygon id="_83656088" class="fil0 str0" points="220.038,40.0621 230.067,40.0621 230.067,50.0595 220.038,50.0595 "/>
   <polygon id="_83655248" class="fil0 str0" points="210.038,40.0621 220.067,40.0621 220.067,50.0595 210.038,50.0595 "/>
   <polygon id="_83802048" class="fil0 str0" points="200.038,40.0621 210.067,40.0621 210.067,50.0595 200.038,50.0595 "/>
   <polygon id="_83801952" class="fil0 str0" points="180.038,40.0621 190.067,40.0621 190.067,50.0595 180.038,50.0595 "/>
   <polygon id="_83801592" class="fil0 str0" points="170.038,40.0621 180.067,40.0621 180.067,50.0595 170.038,50.0595 "/>
   <polygon id="_83802480" class="fil0 str0" points="160.038,40.0621 170.067,40.0621 170.067,50.0595 160.038,50.0595 "/>
   <polygon id="_83802768" class="fil0 str0" points="140.038,40.0621 150.067,40.0621 150.067,50.0595 140.038,50.0595 "/>
   <polygon id="_83803176" class="fil0 str0" points="120.038,40.0621 130.067,40.0621 130.067,50.0595 120.038,50.0595 "/>
   <polygon id="_83803200" class="fil0 str0" points="110.038,40.0621 120.067,40.0621 120.067,50.0595 110.038,50.0595 "/>
   <polygon id="_83326424" class="fil0 str0" points="100.038,40.0621 110.067,40.0621 110.067,50.0595 100.038,50.0595 "/>
   <polygon id="_83326376" class="fil0 str0" points="70.0381,40.0621 80.0666,40.0621 80.0666,50.0595 70.0381,50.0595 "/>
   <polygon id="_83326520" class="fil0 str0" points="60.0381,40.0621 70.0666,40.0621 70.0666,50.0595 60.0381,50.0595 "/>
   <polygon id="_83326352" class="fil0 str0" points="40.0381,40.0621 50.0666,40.0621 50.0666,50.0595 40.0381,50.0595 "/>
   <polygon id="_83326112" class="fil0 str0" points="30.0381,40.0621 40.0666,40.0621 40.0666,50.0595 30.0381,50.0595 "/>
   <polygon id="_83326328" class="fil0 str0" points="0.0381,40.0621 10.0666,40.0621 10.0666,50.0595 0.0381,50.0595 "/>
   <polygon id="_83326280" class="fil0 str0" points="310.038,79.9591 320.067,79.9591 320.067,89.9565 310.038,89.9565 "/>
   <polygon id="_82784096" class="fil0 str0" points="300.038,79.9591 310.067,79.9591 310.067,89.9565 300.038,89.9565 "/>
   <polygon id="_82936704" class="fil0 str0" points="280.038,79.9591 290.067,79.9591 290.067,89.9565 280.038,89.9565 "/>
   <polygon id="_80956248" class="fil0 str0" points="260.038,79.9591 270.067,79.9591 270.067,89.9565 260.038,89.9565 "/>
   <polygon id="_88953448" class="fil0 str0" points="250.038,79.9591 260.067,79.9591 260.067,89.9565 250.038,89.9565 "/>
   <polygon id="_88953520" class="fil0 str0" points="240.038,79.9591 250.067,79.9591 250.067,89.9565 240.038,89.9565 "/>
   <polygon id="_88953592" class="fil0 str0" points="220.038,79.9591 230.067,79.9591 230.067,89.9565 220.038,89.9565 "/>
   <polygon id="_88953664" class="fil0 str0" points="210.038,79.9591 220.067,79.9591 220.067,89.9565 210.038,89.9565 "/>
   <polygon id="_88953736" class="fil0 str0" points="200.038,79.9591 210.067,79.9591 210.067,89.9565 200.038,89.9565 "/>
   <polygon id="_88953808" class="fil0 str0" points="180.038,79.9591 190.067,79.9591 190.067,89.9565 180.038,89.9565 "/>
   <polygon id="_88953880" class="fil0 str0" points="170.038,79.9591 180.067,79.9591 180.067,89.9565 170.038,89.9565 "/>
   <polygon id="_88953952" class="fil0 str0" points="160.038,79.9591 170.067,79.9591 170.067,89.9565 160.038,89.9565 "/>
   <polygon id="_88954024" class="fil0 str0" points="140.038,79.9591 150.067,79.9591 150.067,89.9565 140.038,89.9565 "/>
   <polygon id="_88954096" class="fil0 str0" points="120.038,79.9591 130.067,79.9591 130.067,89.9565 120.038,89.9565 "/>
   <polygon id="_88954168" class="fil0 str0" points="110.038,79.9591 120.067,79.9591 120.067,89.9565 110.038,89.9565 "/>
   <polygon id="_88954240" class="fil0 str0" points="100.038,79.9591 110.067,79.9591 110.067,89.9565 100.038,89.9565 "/>
   <polygon id="_88954312" class="fil0 str0" points="70.0381,79.9591 80.0666,79.9591 80.0666,89.9565 70.0381,89.9565 "/>
   <polygon id="_88954384" class="fil0 str0" points="60.0381,79.9591 70.0666,79.9591 70.0666,89.9565 60.0381,89.9565 "/>
   <polygon id="_88954456" class="fil0 str0" points="40.0381,79.9591 50.0666,79.9591 50.0666,89.9565 40.0381,89.9565 "/>
   <polygon id="_88954528" class="fil0 str0" points="30.0381,79.9591 40.0666,79.9591 40.0666,89.9565 30.0381,89.9565 "/>
   <polygon id="_88954600" class="fil0 str0" points="0.0381,79.9591 10.0666,79.9591 10.0666,89.9565 0.0381,89.9565 "/>
   <g>
    <polygon id="_88954672" class="fil1 str0" points="300.038,60.0595 310.067,60.0595 310.067,69.9617 300.038,69.9617 "/>
    <polygon id="_88954768" class="fil1 str0" points="280.038,60.0595 290.067,60.0595 290.067,69.9617 280.038,69.9617 "/>
    <polygon id="_88954840" class="fil1 str0" points="270.038,60.0595 280.067,60.0595 280.067,69.9617 270.038,69.9617 "/>
    <polygon id="_88954912" class="fil1 str0" points="260.038,60.0595 270.067,60.0595 270.067,69.9617 260.038,69.9617 "/>
    <polygon id="_88954984" class="fil1 str0" points="240.038,60.0595 250.067,60.0595 250.067,69.9617 240.038,69.9617 "/>
    <polygon id="_88955056" class="fil1 str0" points="230.038,60.0595 240.067,60.0595 240.067,69.9617 230.038,69.9617 "/>
    <polygon id="_88955128" class="fil1 str0" points="210.038,60.0595 220.067,60.0595 220.067,69.9617 210.038,69.9617 "/>
    <polygon id="_88955200" class="fil1 str0" points="190.038,60.0595 200.067,60.0595 200.067,69.9617 190.038,69.9617 "/>
    <polygon id="_88955272" class="fil1 str0" points="180.038,60.0595 190.067,60.0595 190.067,69.9617 180.038,69.9617 "/>
    <polygon id="_88955344" class="fil1 str0" points="160.038,60.0595 170.067,60.0595 170.067,69.9617 160.038,69.9617 "/>
    <polygon id="_88955416" class="fil1 str0" points="150.038,60.0595 160.067,60.0595 160.067,69.9617 150.038,69.9617 "/>
    <polygon id="_88955488" class="fil1 str0" points="140.038,60.0595 150.067,60.0595 150.067,69.9617 140.038,69.9617 "/>
    <polygon id="_88955560" class="fil1 str0" points="120.038,60.0595 130.067,60.0595 130.067,69.9617 120.038,69.9617 "/>
    <polygon id="_88955632" class="fil1 str0" points="100.038,60.0595 110.067,60.0595 110.067,69.9617 100.038,69.9617 "/>
    <polygon id="_88955704" class="fil1 str0" points="90.0381,60.0595 100.067,60.0595 100.067,69.9617 90.0381,69.9617 "/>
    <polygon id="_88955776" class="fil1 str0" points="80.0381,60.0595 90.0667,60.0595 90.0667,69.9617 80.0381,69.9617 "/>
    <polygon id="_88955848" class="fil1 str0" points="50.0381,60.0595 60.0667,60.0595 60.0667,69.9617 50.0381,69.9617 "/>
    <polygon id="_88955920" class="fil1 str0" points="20.0381,60.0595 30.0667,60.0595 30.0667,69.9617 20.0381,69.9617 "/>
    <polygon id="_88955992" class="fil1 str0" points="10.0381,60.0595 20.0667,60.0595 20.0667,69.9617 10.0381,69.9617 "/>
    <polygon id="_88956064" class="fil1 str0" points="0.0381,60.0595 10.0667,60.0595 10.0667,69.9617 0.0381,69.9617 "/>
   </g>
   <polygon id="_88956136" class="fil0 str0" points="300.038,20.0381 310.067,20.0381 310.067,30.0354 300.038,30.0354 "/>
   <polygon id="_88956208" class="fil0 str0" points="290.038,20.0381 300.067,20.0381 300.067,30.0354 290.038,30.0354 "/>
   <polygon id="_88956280" class="fil0 str0" points="280.038,20.0381 290.067,20.0381 290.067,30.0354 280.038,30.0354 "/>
   <polygon id="_88956352" class="fil0 str0" points="260.038,20.0381 270.067,20.0381 270.067,30.0354 260.038,30.0354 "/>
   <polygon id="_88956424" class="fil0 str0" points="250.038,20.0381 260.067,20.0381 260.067,30.0354 250.038,30.0354 "/>
   <polygon id="_88956496" class="fil0 str0" points="230.038,20.0381 240.067,20.0381 240.067,30.0354 230.038,30.0354 "/>
   <polygon id="_88956568" class="fil0 str0" points="220.038,20.0381 230.067,20.0381 230.067,30.0354 220.038,30.0354 "/>
   <polygon id="_88956640" class="fil0 str0" points="200.038,20.0381 210.067,20.0381 210.067,30.0354 200.038,30.0354 "/>
   <polygon id="_88956712" class="fil0 str0" points="190.038,20.0381 200.067,20.0381 200.067,30.0354 190.038,30.0354 "/>
   <polygon id="_88956784" class="fil0 str0" points="170.038,20.0381 180.067,20.0381 180.067,30.0354 170.038,30.0354 "/>
   <polygon id="_88956856" class="fil0 str0" points="160.038,20.0381 170.067,20.0381 170.067,30.0354 160.038,30.0354 "/>
   <polygon id="_88956928" class="fil0 str0" points="140.038,20.0381 150.067,20.0381 150.067,30.0354 140.038,30.0354 "/>
   <polygon id="_88957000" class="fil0 str0" points="130.038,20.0381 140.067,20.0381 140.067,30.0354 130.038,30.0354 "/>
   <polygon id="_88957072" class="fil0 str0" points="120.038,20.0381 130.067,20.0381 130.067,30.0354 120.038,30.0354 "/>
   <polygon id="_88957144" class="fil0 str0" points="90.0381,20.0381 100.067,20.0381 100.067,30.0354 90.0381,30.0354 "/>
   <polygon id="_88957216" class="fil0 str0" points="80.0381,20.0381 90.0666,20.0381 90.0666,30.0354 80.0381,30.0354 "/>
   <polygon id="_88957288" class="fil0 str0" points="50.0381,20.0381 60.0666,20.0381 60.0666,30.0354 50.0381,30.0354 "/>
   <polygon id="_88957360" class="fil0 str0" points="20.0381,20.0381 30.0666,20.0381 30.0666,30.0354 20.0381,30.0354 "/>
   <polygon id="_88957432" class="fil0 str0" points="10.0381,20.0381 20.0666,20.0381 20.0666,30.0354 10.0381,30.0354 "/>
   <polygon id="_89035368" class="fil0 str0" points="290.038,10.0381 300.067,10.0381 300.067,20.0354 290.038,20.0354 "/>
   <polygon id="_89035440" class="fil0 str0" points="270.038,10.0381 280.067,10.0381 280.067,20.0354 270.038,20.0354 "/>
   <polygon id="_89035512" class="fil0 str0" points="260.038,10.0381 270.067,10.0381 270.067,20.0354 260.038,20.0354 "/>
   <polygon id="_89035584" class="fil0 str0" points="220.038,10.0381 230.067,10.0381 230.067,20.0354 220.038,20.0354 "/>
   <polygon id="_89035656" class="fil0 str0" points="210.038,10.0381 220.067,10.0381 220.067,20.0354 210.038,20.0354 "/>
   <polygon id="_89035728" class="fil0 str0" points="200.038,10.0381 210.067,10.0381 210.067,20.0354 200.038,20.0354 "/>
   <polygon id="_89035800" class="fil0 str0" points="160.038,10.0381 170.067,10.0381 170.067,20.0354 160.038,20.0354 "/>
   <polygon id="_89035872" class="fil0 str0" points="150.038,10.0381 160.067,10.0381 160.067,20.0354 150.038,20.0354 "/>
   <polygon id="_89035944" class="fil0 str0" points="130.038,10.0381 140.067,10.0381 140.067,20.0354 130.038,20.0354 "/>
   <polygon id="_89036016" class="fil0 str0" points="100.038,10.0381 110.067,10.0381 110.067,20.0354 100.038,20.0354 "/>
   <polygon id="_89036088" class="fil0 str0" points="90.0381,10.0381 100.067,10.0381 100.067,20.0354 90.0381,20.0354 "/>
   <polygon id="_89036160" class="fil0 str0" points="60.0381,10.0381 70.0666,10.0381 70.0666,20.0354 60.0381,20.0354 "/>
   <polygon id="_89036232" class="fil0 str0" points="50.0381,10.0381 60.0666,10.0381 60.0666,20.0354 50.0381,20.0354 "/>
   <polygon id="_89036304" class="fil0 str0" points="40.0381,10.0381 50.0666,10.0381 50.0666,20.0354 40.0381,20.0354 "/>
   <polygon id="_89036376" class="fil0 str0" points="10.0381,10.0381 20.0666,10.0381 20.0666,20.0354 10.0381,20.0354 "/>
   <polygon id="_89036448" class="fil0 str0" points="0.0381,10.0381 10.0666,10.0381 10.0666,20.0354 0.0381,20.0354 "/>
   <polygon id="_89036520" class="fil0 str0" points="280.038,0.0381 290.067,0.0381 290.067,10.0354 280.038,10.0354 "/>
   <polygon id="_89036592" class="fil0 str0" points="270.038,0.0381 280.067,0.0381 280.067,10.0354 270.038,10.0354 "/>
   <polygon id="_89036664" class="fil1 str0" points="240.038,0.0381 250.067,0.0381 250.067,10.0354 240.038,10.0354 "/>
   <polygon id="_89036736" class="fil0 str0" points="210.038,0.0381 220.067,0.0381 220.067,10.0354 210.038,10.0354 "/>
   <polygon id="_89036808" class="fil1 str0" points="180.038,0.0381 190.067,0.0381 190.067,10.0354 180.038,10.0354 "/>
   <polygon id="_89036880" class="fil0 str0" points="150.038,0.0381 160.067,0.0381 160.067,10.0354 150.038,10.0354 "/>
   <polygon id="_89036952" class="fil0 str0" points="140.038,0.0381 150.067,0.0381 150.067,10.0354 140.038,10.0354 "/>
   <polygon id="_89037024" class="fil0 str0" points="100.038,0.0381 110.067,0.0381 110.067,10.0354 100.038,10.0354 "/>
   <polygon id="_89037096" class="fil0 str0" points="70.0381,0.0381 80.0666,0.0381 80.0666,10.0354 70.0381,10.0354 "/>
   <polygon id="_89037168" class="fil0 str0" points="60.0381,0.0381 70.0666,0.0381 70.0666,10.0354 60.0381,10.0354 "/>
   <polygon id="_89037240" class="fil0 str0" points="40.0381,0.0381 50.0666,0.0381 50.0666,10.0354 40.0381,10.0354 "/>
   <polygon id="_89037312" class="fil0 str0" points="30.0381,0.0381 40.0666,0.0381 40.0666,10.0354 30.0381,10.0354 "/>
   <polygon id="_89037384" class="fil0 str0" points="0.0381,0.0381 10.0666,0.0381 10.0666,10.0354 0.0381,10.0354 "/>
  </g>
 </g>
</svg>
