<svg xmlns="http://www.w3.org/2000/svg" xmlns:xlink="http://www.w3.org/1999/xlink" width="1209.846" height="491.528" viewBox="0 0 320.105 130.05" xml:space="preserve" style="shape-rendering:geometricPrecision;text-rendering:geometricPrecision;image-rendering:optimizeQuality;fill-rule:evenodd;clip-rule:evenodd"><defs><style type="text/css">.str0{stroke:#fff;stroke-width:.0762}.fil1{fill:#1f1a17}.fil0{fill:#da251d}</style></defs><g id="Layer_x0020_1"><metadata id="CorelCorpID_0Corel-Layer"/><g id="_88481328"><polygon id="_88481160" points="290.038 109.983 300.067 109.983 300.067 120.012 290.038 120.012" class="fil0 str0"/><polygon id="_88481952" points="270.038 109.983 280.067 109.983 280.067 120.012 270.038 120.012" class="fil0 str0"/><polygon id="_88481208" points="260.038 109.983 270.067 109.983 270.067 120.012 260.038 120.012" class="fil0 str0"/><polygon id="_88481544" points="220.038 109.983 230.067 109.983 230.067 120.012 220.038 120.012" class="fil0 str0"/><polygon id="_88482264" points="210.038 109.983 220.067 109.983 220.067 120.012 210.038 120.012" class="fil0 str0"/><polygon id="_88482624" points="200.038 109.983 210.067 109.983 210.067 120.012 200.038 120.012" class="fil0 str0"/><polygon id="_88482840" points="160.038 109.983 170.067 109.983 170.067 120.012 160.038 120.012" class="fil0 str0"/><polygon id="_88483056" points="150.038 109.983 160.067 109.983 160.067 120.012 150.038 120.012" class="fil0 str0"/><polygon id="_88482480" points="130.038 109.983 140.067 109.983 140.067 120.012 130.038 120.012" class="fil0 str0"/><polygon id="_88482816" points="100.038 109.983 110.067 109.983 110.067 120.012 100.038 120.012" class="fil0 str0"/><polygon id="_88482144" points="90.038 109.983 100.067 109.983 100.067 120.012 90.038 120.012" class="fil0 str0"/><polygon id="_88482456" points="60.038 109.983 70.067 109.983 70.067 120.012 60.038 120.012" class="fil0 str0"/><polygon id="_88482672" points="50.038 109.983 60.067 109.983 60.067 120.012 50.038 120.012" class="fil0 str0"/><polygon id="_11056608" points="40.038 109.983 50.067 109.983 50.067 120.012 40.038 120.012" class="fil0 str0"/><polygon id="_11056632" points="10.038 109.983 20.067 109.983 20.067 120.012 10.038 120.012" class="fil0 str0"/><polygon id="_11056656" points=".038 109.983 10.067 109.983 10.067 120.012 .038 120.012" class="fil0 str0"/><polygon id="_11056728" points="300.038 99.983 310.067 99.983 310.067 110.012 300.038 110.012" class="fil0 str0"/><polygon id="_11056800" points="290.038 99.983 300.067 99.983 300.067 110.012 290.038 110.012" class="fil0 str0"/><polygon id="_11056920" points="280.038 99.983 290.067 99.983 290.067 110.012 280.038 110.012" class="fil0 str0"/><polygon id="_11057016" points="260.038 99.983 270.067 99.983 270.067 110.012 260.038 110.012" class="fil0 str0"/><polygon id="_11057088" points="250.038 99.983 260.067 99.983 260.067 110.012 250.038 110.012" class="fil0 str0"/><polygon id="_11057160" points="230.038 99.983 240.067 99.983 240.067 110.012 230.038 110.012" class="fil0 str0"/><polygon id="_11057232" points="220.038 99.983 230.067 99.983 230.067 110.012 220.038 110.012" class="fil0 str0"/><polygon id="_11057304" points="200.038 99.983 210.067 99.983 210.067 110.012 200.038 110.012" class="fil0 str0"/><polygon id="_11057376" points="190.038 99.983 200.067 99.983 200.067 110.012 190.038 110.012" class="fil0 str0"/><polygon id="_11057448" points="170.038 99.983 180.067 99.983 180.067 110.012 170.038 110.012" class="fil0 str0"/><polygon id="_11057520" points="160.038 99.983 170.067 99.983 170.067 110.012 160.038 110.012" class="fil0 str0"/><polygon id="_11057592" points="140.038 99.983 150.067 99.983 150.067 110.012 140.038 110.012" class="fil0 str0"/><polygon id="_11057664" points="130.038 99.983 140.067 99.983 140.067 110.012 130.038 110.012" class="fil0 str0"/><polygon id="_11057736" points="120.038 99.983 130.067 99.983 130.067 110.012 120.038 110.012" class="fil0 str0"/><polygon id="_11057808" points="90.038 99.983 100.067 99.983 100.067 110.012 90.038 110.012" class="fil0 str0"/><polygon id="_11057880" points="80.038 99.983 90.067 99.983 90.067 110.012 80.038 110.012" class="fil0 str0"/><polygon id="_11057952" points="50.038 99.983 60.067 99.983 60.067 110.012 50.038 110.012" class="fil0 str0"/><polygon id="_11058024" points="20.038 99.983 30.067 99.983 30.067 110.012 20.038 110.012" class="fil0 str0"/><polygon id="_11058096" points="10.038 99.983 20.067 99.983 20.067 110.012 10.038 110.012" class="fil0 str0"/><polygon id="_11058168" points="310.038 89.983 320.067 89.983 320.067 100.012 310.038 100.012" class="fil0 str0"/><polygon id="_11058240" points="300.038 89.983 310.067 89.983 310.067 100.012 300.038 100.012" class="fil0 str0"/><polygon id="_11058312" points="290.038 89.983 300.067 89.983 300.067 100.012 290.038 100.012" class="fil0 str0"/><polygon id="_11058384" points="270.038 89.983 280.067 89.983 280.067 100.012 270.038 100.012" class="fil0 str0"/><polygon id="_11058456" points="250.038 89.983 260.067 89.983 260.067 100.012 250.038 100.012" class="fil0 str0"/><polygon id="_11058528" points="240.038 89.983 250.067 89.983 250.067 100.012 240.038 100.012" class="fil0 str0"/><polygon id="_11058600" points="230.038 89.983 240.067 89.983 240.067 100.012 230.038 100.012" class="fil0 str0"/><polygon id="_11058672" points="210.038 89.983 220.067 89.983 220.067 100.012 210.038 100.012" class="fil0 str0"/><polygon id="_11058744" points="190.038 89.983 200.067 89.983 200.067 100.012 190.038 100.012" class="fil0 str0"/><polygon id="_11058816" points="180.038 89.983 190.067 89.983 190.067 100.012 180.038 100.012" class="fil0 str0"/><polygon id="_11058888" points="170.038 89.983 180.067 89.983 180.067 100.012 170.038 100.012" class="fil0 str0"/><polygon id="_11058960" points="150.038 89.983 160.067 89.983 160.067 100.012 150.038 100.012" class="fil0 str0"/><polygon id="_11059032" points="130.038 89.983 140.067 89.983 140.067 100.012 130.038 100.012" class="fil0 str0"/><polygon id="_11059104" points="120.038 89.983 130.067 89.983 130.067 100.012 120.038 100.012" class="fil0 str0"/><polygon id="_11059176" points="110.038 89.983 120.067 89.983 120.067 100.012 110.038 100.012" class="fil0 str0"/><polygon id="_11059248" points="80.038 89.983 90.067 89.983 90.067 100.012 80.038 100.012" class="fil0 str0"/><polygon id="_11059320" points="70.038 89.983 80.067 89.983 80.067 100.012 70.038 100.012" class="fil0 str0"/><polygon id="_11059392" points="30.038 89.983 40.067 89.983 40.067 100.012 30.038 100.012" class="fil0 str0"/><polygon id="_11059464" points="20.038 89.983 30.067 89.983 30.067 100.012 20.038 100.012" class="fil0 str0"/><polygon id="_88660672" points="280.038 119.983 290.067 119.983 290.067 130.012 280.038 130.012" class="fil0 str0"/><polygon id="_88659448" points="270.038 119.983 280.067 119.983 280.067 130.012 270.038 130.012" class="fil0 str0"/><polygon id="_88659568" points="240.038 119.983 250.067 119.983 250.067 130.012 240.038 130.012" class="fil1 str0"/><polygon id="_88660288" points="210.038 119.983 220.067 119.983 220.067 130.012 210.038 130.012" class="fil0 str0"/><polygon id="_88660072" points="180.038 119.983 190.067 119.983 190.067 130.012 180.038 130.012" class="fil1 str0"/><polygon id="_88660000" points="150.038 119.983 160.067 119.983 160.067 130.012 150.038 130.012" class="fil0 str0"/><polygon id="_88659832" points="140.038 119.983 150.067 119.983 150.067 130.012 140.038 130.012" class="fil0 str0"/><polygon id="_88660192" points="100.038 119.983 110.067 119.983 110.067 130.012 100.038 130.012" class="fil0 str0"/><polygon id="_88659760" points="70.038 119.983 80.067 119.983 80.067 130.012 70.038 130.012" class="fil0 str0"/><polygon id="_88659592" points="60.038 119.983 70.067 119.983 70.067 130.012 60.038 130.012" class="fil0 str0"/><polygon id="_88660552" points="40.038 119.983 50.067 119.983 50.067 130.012 40.038 130.012" class="fil0 str0"/><polygon id="_88659256" points="30.038 119.983 40.067 119.983 40.067 130.012 30.038 130.012" class="fil0 str0"/><polygon id="_88660576" points=".038 119.983 10.067 119.983 10.067 130.012 .038 130.012" class="fil0 str0"/><polygon id="_88659328" points="310.038 69.962 320.067 69.962 320.067 79.959 310.038 79.959" class="fil0 str0"/><polygon id="_88659064" points="290.038 69.962 300.067 69.962 300.067 79.959 290.038 79.959" class="fil0 str0"/><polygon id="_88659400" points="270.038 69.962 280.067 69.962 280.067 79.959 270.038 79.959" class="fil0 str0"/><polygon id="_88659544" points="260.038 69.962 270.067 69.962 270.067 79.959 260.038 79.959" class="fil0 str0"/><polygon id="_88659784" points="250.038 69.962 260.067 69.962 260.067 79.959 250.038 79.959" class="fil0 str0"/><polygon id="_88660168" points="230.038 69.962 240.067 69.962 240.067 79.959 230.038 79.959" class="fil0 str0"/><polygon id="_88659856" points="220.038 69.962 230.067 69.962 230.067 79.959 220.038 79.959" class="fil0 str0"/><polygon id="_88659976" points="210.038 69.962 220.067 69.962 220.067 79.959 210.038 79.959" class="fil0 str0"/><polygon id="_88659376" points="200.038 69.962 210.067 69.962 210.067 79.959 200.038 79.959" class="fil0 str0"/><polygon id="_88540968" points="190.038 69.962 200.067 69.962 200.067 79.959 190.038 79.959" class="fil0 str0"/><polygon id="_88539720" points="170.038 69.962 180.067 69.962 180.067 79.959 170.038 79.959" class="fil0 str0"/><polygon id="_88539648" points="160.038 69.962 170.067 69.962 170.067 79.959 160.038 79.959" class="fil0 str0"/><polygon id="_88541160" points="150.038 69.962 160.067 69.962 160.067 79.959 150.038 79.959" class="fil0 str0"/><polygon id="_88541256" points="130.038 69.962 140.067 69.962 140.067 79.959 130.038 79.959" class="fil0 str0"/><polygon id="_88541112" points="110.038 69.962 120.067 69.962 120.067 79.959 110.038 79.959" class="fil0 str0"/><polygon id="_88541136" points="100.038 69.962 110.067 69.962 110.067 79.959 100.038 79.959" class="fil0 str0"/><polygon id="_88539960" points="90.038 69.962 100.067 69.962 100.067 79.959 90.038 79.959" class="fil0 str0"/><polygon id="_88540080" points="60.038 69.962 70.067 69.962 70.067 79.959 60.038 79.959" class="fil0 str0"/><polygon id="_88540008" points="40.038 69.962 50.067 69.962 50.067 79.959 40.038 79.959" class="fil0 str0"/><polygon id="_88540128" points="10.038 69.962 20.067 69.962 20.067 79.959 10.038 79.959" class="fil0 str0"/><polygon id="_88541016" points=".038 69.962 10.067 69.962 10.067 79.959 .038 79.959" class="fil0 str0"/><polygon id="_88539600" points="310.038 30.035 320.067 30.035 320.067 40.033 310.038 40.033" class="fil0 str0"/><polygon id="_88539696" points="300.038 30.035 310.067 30.035 310.067 40.033 300.038 40.033" class="fil0 str0"/><polygon id="_88539576" points="290.038 30.035 300.067 30.035 300.067 40.033 290.038 40.033" class="fil0 str0"/><polygon id="_88539840" points="270.038 30.035 280.067 30.035 280.067 40.033 270.038 40.033" class="fil0 str0"/><polygon id="_88540920" points="250.038 30.035 260.067 30.035 260.067 40.033 250.038 40.033" class="fil0 str0"/><polygon id="_88539528" points="240.038 30.035 250.067 30.035 250.067 40.033 240.038 40.033" class="fil0 str0"/><polygon id="_88812152" points="230.038 30.035 240.067 30.035 240.067 40.033 230.038 40.033" class="fil0 str0"/><polygon id="_88811960" points="210.038 30.035 220.067 30.035 220.067 40.033 210.038 40.033" class="fil0 str0"/><polygon id="_88812536" points="190.038 30.035 200.067 30.035 200.067 40.033 190.038 40.033" class="fil0 str0"/><polygon id="_88812752" points="180.038 30.035 190.067 30.035 190.067 40.033 180.038 40.033" class="fil0 str0"/><polygon id="_88812968" points="170.038 30.035 180.067 30.035 180.067 40.033 170.038 40.033" class="fil0 str0"/><polygon id="_88813136" points="150.038 30.035 160.067 30.035 160.067 40.033 150.038 40.033" class="fil0 str0"/><polygon id="_88812920" points="130.038 30.035 140.067 30.035 140.067 40.033 130.038 40.033" class="fil0 str0"/><polygon id="_88812704" points="120.038 30.035 130.067 30.035 130.067 40.033 120.038 40.033" class="fil0 str0"/><polygon id="_88812488" points="110.038 30.035 120.067 30.035 120.067 40.033 110.038 40.033" class="fil0 str0"/><polygon id="_88812296" points="80.038 30.035 90.067 30.035 90.067 40.033 80.038 40.033" class="fil0 str0"/><polygon id="_88812200" points="70.038 30.035 80.067 30.035 80.067 40.033 70.038 40.033" class="fil0 str0"/><polygon id="_88812320" points="30.038 30.035 40.067 30.035 40.067 40.033 30.038 40.033" class="fil0 str0"/><polygon id="_88812104" points="20.038 30.035 30.067 30.035 30.067 40.033 20.038 40.033" class="fil0 str0"/><polygon id="_88812392" points="310.038 50.062 320.067 50.062 320.067 60.059 310.038 60.059" class="fil0 str0"/><polygon id="_88812584" points="290.038 50.062 300.067 50.062 300.067 60.059 290.038 60.059" class="fil0 str0"/><polygon id="_88812800" points="270.038 50.062 280.067 50.062 280.067 60.059 270.038 60.059" class="fil0 str0"/><polygon id="_88813016" points="260.038 50.062 270.067 50.062 270.067 60.059 260.038 60.059" class="fil0 str0"/><polygon id="_11042224" points="250.038 50.062 260.067 50.062 260.067 60.059 250.038 60.059" class="fil0 str0"/><polygon id="_11042152" points="230.038 50.062 240.067 50.062 240.067 60.059 230.038 60.059" class="fil0 str0"/><polygon id="_11042080" points="220.038 50.062 230.067 50.062 230.067 60.059 220.038 60.059" class="fil0 str0"/><polygon id="_11042008" points="210.038 50.062 220.067 50.062 220.067 60.059 210.038 60.059" class="fil0 str0"/><polygon id="_11041936" points="200.038 50.062 210.067 50.062 210.067 60.059 200.038 60.059" class="fil0 str0"/><polygon id="_11041864" points="190.038 50.062 200.067 50.062 200.067 60.059 190.038 60.059" class="fil0 str0"/><polygon id="_11041744" points="170.038 50.062 180.067 50.062 180.067 60.059 170.038 60.059" class="fil0 str0"/><polygon id="_11041672" points="160.038 50.062 170.067 50.062 170.067 60.059 160.038 60.059" class="fil0 str0"/><polygon id="_11041600" points="150.038 50.062 160.067 50.062 160.067 60.059 150.038 60.059" class="fil0 str0"/><polygon id="_11041552" points="130.038 50.062 140.067 50.062 140.067 60.059 130.038 60.059" class="fil0 str0"/><polygon id="_11042728" points="110.038 50.062 120.067 50.062 120.067 60.059 110.038 60.059" class="fil0 str0"/><polygon id="_11041480" points="100.038 50.062 110.067 50.062 110.067 60.059 100.038 60.059" class="fil0 str0"/><polygon id="_11042752" points="90.038 50.062 100.067 50.062 100.067 60.059 90.038 60.059" class="fil0 str0"/><polygon id="_11042800" points="60.038 50.062 70.067 50.062 70.067 60.059 60.038 60.059" class="fil0 str0"/><polygon id="_11042680" points="40.038 50.062 50.067 50.062 50.067 60.059 40.038 60.059" class="fil0 str0"/><polygon id="_83655656" points="10.038 50.062 20.067 50.062 20.067 60.059 10.038 60.059" class="fil0 str0"/><polygon id="_83655680" points=".038 50.062 10.067 50.062 10.067 60.059 .038 60.059" class="fil0 str0"/><polygon id="_83655344" points="310.038 40.062 320.067 40.062 320.067 50.059 310.038 50.059" class="fil0 str0"/><polygon id="_83655560" points="300.038 40.062 310.067 40.062 310.067 50.059 300.038 50.059" class="fil0 str0"/><polygon id="_83655752" points="280.038 40.062 290.067 40.062 290.067 50.059 280.038 50.059" class="fil0 str0"/><polygon id="_83656040" points="260.038 40.062 270.067 40.062 270.067 50.059 260.038 50.059" class="fil0 str0"/><polygon id="_83655800" points="250.038 40.062 260.067 40.062 260.067 50.059 250.038 50.059" class="fil0 str0"/><polygon id="_83655848" points="240.038 40.062 250.067 40.062 250.067 50.059 240.038 50.059" class="fil0 str0"/><polygon id="_83656088" points="220.038 40.062 230.067 40.062 230.067 50.059 220.038 50.059" class="fil0 str0"/><polygon id="_83655248" points="210.038 40.062 220.067 40.062 220.067 50.059 210.038 50.059" class="fil0 str0"/><polygon id="_83802048" points="200.038 40.062 210.067 40.062 210.067 50.059 200.038 50.059" class="fil0 str0"/><polygon id="_83801952" points="180.038 40.062 190.067 40.062 190.067 50.059 180.038 50.059" class="fil0 str0"/><polygon id="_83801592" points="170.038 40.062 180.067 40.062 180.067 50.059 170.038 50.059" class="fil0 str0"/><polygon id="_83802480" points="160.038 40.062 170.067 40.062 170.067 50.059 160.038 50.059" class="fil0 str0"/><polygon id="_83802768" points="140.038 40.062 150.067 40.062 150.067 50.059 140.038 50.059" class="fil0 str0"/><polygon id="_83803176" points="120.038 40.062 130.067 40.062 130.067 50.059 120.038 50.059" class="fil0 str0"/><polygon id="_83803200" points="110.038 40.062 120.067 40.062 120.067 50.059 110.038 50.059" class="fil0 str0"/><polygon id="_83326424" points="100.038 40.062 110.067 40.062 110.067 50.059 100.038 50.059" class="fil0 str0"/><polygon id="_83326376" points="70.038 40.062 80.067 40.062 80.067 50.059 70.038 50.059" class="fil0 str0"/><polygon id="_83326520" points="60.038 40.062 70.067 40.062 70.067 50.059 60.038 50.059" class="fil0 str0"/><polygon id="_83326352" points="40.038 40.062 50.067 40.062 50.067 50.059 40.038 50.059" class="fil0 str0"/><polygon id="_83326112" points="30.038 40.062 40.067 40.062 40.067 50.059 30.038 50.059" class="fil0 str0"/><polygon id="_83326328" points=".038 40.062 10.067 40.062 10.067 50.059 .038 50.059" class="fil0 str0"/><polygon id="_83326280" points="310.038 79.959 320.067 79.959 320.067 89.957 310.038 89.957" class="fil0 str0"/><polygon id="_82784096" points="300.038 79.959 310.067 79.959 310.067 89.957 300.038 89.957" class="fil0 str0"/><polygon id="_82936704" points="280.038 79.959 290.067 79.959 290.067 89.957 280.038 89.957" class="fil0 str0"/><polygon id="_80956248" points="260.038 79.959 270.067 79.959 270.067 89.957 260.038 89.957" class="fil0 str0"/><polygon id="_88953448" points="250.038 79.959 260.067 79.959 260.067 89.957 250.038 89.957" class="fil0 str0"/><polygon id="_88953520" points="240.038 79.959 250.067 79.959 250.067 89.957 240.038 89.957" class="fil0 str0"/><polygon id="_88953592" points="220.038 79.959 230.067 79.959 230.067 89.957 220.038 89.957" class="fil0 str0"/><polygon id="_88953664" points="210.038 79.959 220.067 79.959 220.067 89.957 210.038 89.957" class="fil0 str0"/><polygon id="_88953736" points="200.038 79.959 210.067 79.959 210.067 89.957 200.038 89.957" class="fil0 str0"/><polygon id="_88953808" points="180.038 79.959 190.067 79.959 190.067 89.957 180.038 89.957" class="fil0 str0"/><polygon id="_88953880" points="170.038 79.959 180.067 79.959 180.067 89.957 170.038 89.957" class="fil0 str0"/><polygon id="_88953952" points="160.038 79.959 170.067 79.959 170.067 89.957 160.038 89.957" class="fil0 str0"/><polygon id="_88954024" points="140.038 79.959 150.067 79.959 150.067 89.957 140.038 89.957" class="fil0 str0"/><polygon id="_88954096" points="120.038 79.959 130.067 79.959 130.067 89.957 120.038 89.957" class="fil0 str0"/><polygon id="_88954168" points="110.038 79.959 120.067 79.959 120.067 89.957 110.038 89.957" class="fil0 str0"/><polygon id="_88954240" points="100.038 79.959 110.067 79.959 110.067 89.957 100.038 89.957" class="fil0 str0"/><polygon id="_88954312" points="70.038 79.959 80.067 79.959 80.067 89.957 70.038 89.957" class="fil0 str0"/><polygon id="_88954384" points="60.038 79.959 70.067 79.959 70.067 89.957 60.038 89.957" class="fil0 str0"/><polygon id="_88954456" points="40.038 79.959 50.067 79.959 50.067 89.957 40.038 89.957" class="fil0 str0"/><polygon id="_88954528" points="30.038 79.959 40.067 79.959 40.067 89.957 30.038 89.957" class="fil0 str0"/><polygon id="_88954600" points=".038 79.959 10.067 79.959 10.067 89.957 .038 89.957" class="fil0 str0"/><g><polygon id="_88954672" points="300.038 60.059 310.067 60.059 310.067 69.962 300.038 69.962" class="fil1 str0"/><polygon id="_88954768" points="280.038 60.059 290.067 60.059 290.067 69.962 280.038 69.962" class="fil1 str0"/><polygon id="_88954840" points="270.038 60.059 280.067 60.059 280.067 69.962 270.038 69.962" class="fil1 str0"/><polygon id="_88954912" points="260.038 60.059 270.067 60.059 270.067 69.962 260.038 69.962" class="fil1 str0"/><polygon id="_88954984" points="240.038 60.059 250.067 60.059 250.067 69.962 240.038 69.962" class="fil1 str0"/><polygon id="_88955056" points="230.038 60.059 240.067 60.059 240.067 69.962 230.038 69.962" class="fil1 str0"/><polygon id="_88955128" points="210.038 60.059 220.067 60.059 220.067 69.962 210.038 69.962" class="fil1 str0"/><polygon id="_88955200" points="190.038 60.059 200.067 60.059 200.067 69.962 190.038 69.962" class="fil1 str0"/><polygon id="_88955272" points="180.038 60.059 190.067 60.059 190.067 69.962 180.038 69.962" class="fil1 str0"/><polygon id="_88955344" points="160.038 60.059 170.067 60.059 170.067 69.962 160.038 69.962" class="fil1 str0"/><polygon id="_88955416" points="150.038 60.059 160.067 60.059 160.067 69.962 150.038 69.962" class="fil1 str0"/><polygon id="_88955488" points="140.038 60.059 150.067 60.059 150.067 69.962 140.038 69.962" class="fil1 str0"/><polygon id="_88955560" points="120.038 60.059 130.067 60.059 130.067 69.962 120.038 69.962" class="fil1 str0"/><polygon id="_88955632" points="100.038 60.059 110.067 60.059 110.067 69.962 100.038 69.962" class="fil1 str0"/><polygon id="_88955704" points="90.038 60.059 100.067 60.059 100.067 69.962 90.038 69.962" class="fil1 str0"/><polygon id="_88955776" points="80.038 60.059 90.067 60.059 90.067 69.962 80.038 69.962" class="fil1 str0"/><polygon id="_88955848" points="50.038 60.059 60.067 60.059 60.067 69.962 50.038 69.962" class="fil1 str0"/><polygon id="_88955920" points="20.038 60.059 30.067 60.059 30.067 69.962 20.038 69.962" class="fil1 str0"/><polygon id="_88955992" points="10.038 60.059 20.067 60.059 20.067 69.962 10.038 69.962" class="fil1 str0"/><polygon id="_88956064" points=".038 60.059 10.067 60.059 10.067 69.962 .038 69.962" class="fil1 str0"/></g><polygon id="_88956136" points="300.038 20.038 310.067 20.038 310.067 30.035 300.038 30.035" class="fil0 str0"/><polygon id="_88956208" points="290.038 20.038 300.067 20.038 300.067 30.035 290.038 30.035" class="fil0 str0"/><polygon id="_88956280" points="280.038 20.038 290.067 20.038 290.067 30.035 280.038 30.035" class="fil0 str0"/><polygon id="_88956352" points="260.038 20.038 270.067 20.038 270.067 30.035 260.038 30.035" class="fil0 str0"/><polygon id="_88956424" points="250.038 20.038 260.067 20.038 260.067 30.035 250.038 30.035" class="fil0 str0"/><polygon id="_88956496" points="230.038 20.038 240.067 20.038 240.067 30.035 230.038 30.035" class="fil0 str0"/><polygon id="_88956568" points="220.038 20.038 230.067 20.038 230.067 30.035 220.038 30.035" class="fil0 str0"/><polygon id="_88956640" points="200.038 20.038 210.067 20.038 210.067 30.035 200.038 30.035" class="fil0 str0"/><polygon id="_88956712" points="190.038 20.038 200.067 20.038 200.067 30.035 190.038 30.035" class="fil0 str0"/><polygon id="_88956784" points="170.038 20.038 180.067 20.038 180.067 30.035 170.038 30.035" class="fil0 str0"/><polygon id="_88956856" points="160.038 20.038 170.067 20.038 170.067 30.035 160.038 30.035" class="fil0 str0"/><polygon id="_88956928" points="140.038 20.038 150.067 20.038 150.067 30.035 140.038 30.035" class="fil0 str0"/><polygon id="_88957000" points="130.038 20.038 140.067 20.038 140.067 30.035 130.038 30.035" class="fil0 str0"/><polygon id="_88957072" points="120.038 20.038 130.067 20.038 130.067 30.035 120.038 30.035" class="fil0 str0"/><polygon id="_88957144" points="90.038 20.038 100.067 20.038 100.067 30.035 90.038 30.035" class="fil0 str0"/><polygon id="_88957216" points="80.038 20.038 90.067 20.038 90.067 30.035 80.038 30.035" class="fil0 str0"/><polygon id="_88957288" points="50.038 20.038 60.067 20.038 60.067 30.035 50.038 30.035" class="fil0 str0"/><polygon id="_88957360" points="20.038 20.038 30.067 20.038 30.067 30.035 20.038 30.035" class="fil0 str0"/><polygon id="_88957432" points="10.038 20.038 20.067 20.038 20.067 30.035 10.038 30.035" class="fil0 str0"/><polygon id="_89035368" points="290.038 10.038 300.067 10.038 300.067 20.035 290.038 20.035" class="fil0 str0"/><polygon id="_89035440" points="270.038 10.038 280.067 10.038 280.067 20.035 270.038 20.035" class="fil0 str0"/><polygon id="_89035512" points="260.038 10.038 270.067 10.038 270.067 20.035 260.038 20.035" class="fil0 str0"/><polygon id="_89035584" points="220.038 10.038 230.067 10.038 230.067 20.035 220.038 20.035" class="fil0 str0"/><polygon id="_89035656" points="210.038 10.038 220.067 10.038 220.067 20.035 210.038 20.035" class="fil0 str0"/><polygon id="_89035728" points="200.038 10.038 210.067 10.038 210.067 20.035 200.038 20.035" class="fil0 str0"/><polygon id="_89035800" points="160.038 10.038 170.067 10.038 170.067 20.035 160.038 20.035" class="fil0 str0"/><polygon id="_89035872" points="150.038 10.038 160.067 10.038 160.067 20.035 150.038 20.035" class="fil0 str0"/><polygon id="_89035944" points="130.038 10.038 140.067 10.038 140.067 20.035 130.038 20.035" class="fil0 str0"/><polygon id="_89036016" points="100.038 10.038 110.067 10.038 110.067 20.035 100.038 20.035" class="fil0 str0"/><polygon id="_89036088" points="90.038 10.038 100.067 10.038 100.067 20.035 90.038 20.035" class="fil0 str0"/><polygon id="_89036160" points="60.038 10.038 70.067 10.038 70.067 20.035 60.038 20.035" class="fil0 str0"/><polygon id="_89036232" points="50.038 10.038 60.067 10.038 60.067 20.035 50.038 20.035" class="fil0 str0"/><polygon id="_89036304" points="40.038 10.038 50.067 10.038 50.067 20.035 40.038 20.035" class="fil0 str0"/><polygon id="_89036376" points="10.038 10.038 20.067 10.038 20.067 20.035 10.038 20.035" class="fil0 str0"/><polygon id="_89036448" points=".038 10.038 10.067 10.038 10.067 20.035 .038 20.035" class="fil0 str0"/><polygon id="_89036520" points="280.038 .038 290.067 .038 290.067 10.035 280.038 10.035" class="fil0 str0"/><polygon id="_89036592" points="270.038 .038 280.067 .038 280.067 10.035 270.038 10.035" class="fil0 str0"/><polygon id="_89036664" points="240.038 .038 250.067 .038 250.067 10.035 240.038 10.035" class="fil1 str0"/><polygon id="_89036736" points="210.038 .038 220.067 .038 220.067 10.035 210.038 10.035" class="fil0 str0"/><polygon id="_89036808" points="180.038 .038 190.067 .038 190.067 10.035 180.038 10.035" class="fil1 str0"/><polygon id="_89036880" points="150.038 .038 160.067 .038 160.067 10.035 150.038 10.035" class="fil0 str0"/><polygon id="_89036952" points="140.038 .038 150.067 .038 150.067 10.035 140.038 10.035" class="fil0 str0"/><polygon id="_89037024" points="100.038 .038 110.067 .038 110.067 10.035 100.038 10.035" class="fil0 str0"/><polygon id="_89037096" points="70.038 .038 80.067 .038 80.067 10.035 70.038 10.035" class="fil0 str0"/><polygon id="_89037168" points="60.038 .038 70.067 .038 70.067 10.035 60.038 10.035" class="fil0 str0"/><polygon id="_89037240" points="40.038 .038 50.067 .038 50.067 10.035 40.038 10.035" class="fil0 str0"/><polygon id="_89037312" points="30.038 .038 40.067 .038 40.067 10.035 30.038 10.035" class="fil0 str0"/><polygon id="_89037384" points=".038 .038 10.067 .038 10.067 10.035 .038 10.035" class="fil0 str0"/></g></g></svg>