<svg xmlns="http://www.w3.org/2000/svg" xmlns:xlink="http://www.w3.org/1999/xlink" version="1.1" viewBox="0 0 1865 1865"><g transform="scale(3.642578125)"><path stroke="none" d="m324.34703,475.20896c-2.70197,1.44105 -5.2238,3.06223 -7.92577,4.50328c-0.72052,1.44105 -1.98144,1.80131 -3.42249,1.62118c-1.62118,0.72052 -3.06223,1.44105 -4.68341,1.98144c-0.90066,1.08079 -2.16157,1.44105 -3.42249,1.44105l0,0c-4.14301,2.52183 -8.28603,3.24236 -12.60917,0.54039c-2.3417,-1.44105 -5.2238,-1.80131 -7.38537,-3.96288c-4.68341,-4.68341 -4.86354,-9.90721 0,-14.23035c2.52183,-2.3417 5.76419,-3.96288 8.64629,-5.76419c0.18013,-0.18013 0.36026,-0.18013 0.54039,-0.18013c0.18013,-0.18013 0.18013,-0.18013 -0.18013,0c-5.40393,1.98144 -10.62773,4.32315 -16.39193,4.68341l0,0c-0.72052,1.26092 -1.98144,0.72052 -3.06223,0.90066c-1.44105,-0.18013 -2.52183,0.54039 -3.60262,1.26092c-0.72052,1.62118 -2.16157,0.54039 -3.24236,0.90066c-0.36026,0.18013 -0.72052,0.18013 -1.08079,0.36026c-0.72052,1.26092 -1.98144,0.72052 -3.24236,0.90066c-2.70197,0 -5.04367,1.44105 -7.5655,1.98144c-1.62118,1.26092 -3.42249,0.36026 -5.2238,0.54039c-0.72052,0 -1.26092,0.18013 -1.98144,0.18013c-6.48472,0.18013 -11.34826,-2.8821 -15.49127,-7.38537l0,0c-1.26092,-0.72052 -1.62118,-1.80131 -1.62118,-3.06223c0,-1.44105 0,-2.8821 0,-4.32315c0,-0.72052 0.18013,-1.26092 0.54039,-1.80131c0.54039,-0.90066 1.26092,-1.62118 2.16157,-2.3417c1.62118,-1.62118 3.60262,-2.70197 5.04367,-4.68341c-3.06223,1.62118 -6.30459,1.62118 -9.54695,1.80131c-0.36026,0 -0.90066,0 -1.26092,0c-2.16157,-1.26092 -4.14301,2.16157 -6.30459,0.36026c-0.36026,-0.36026 -0.54039,-0.54039 -0.90066,-0.90066c-0.72052,-0.90066 -1.44105,-1.62118 -2.52183,-1.98144c-5.40393,-1.26092 -10.26747,-4.14301 -15.31114,-6.30459c-1.80131,-0.72052 -3.42249,-1.26092 -5.40393,-1.26092c-1.26092,-0.36026 -2.3417,-0.54039 -3.60262,-0.72052c-1.08079,-0.18013 -2.3417,-0.18013 -2.70197,-0.90066c-1.26092,-2.70197 -3.42249,-1.98144 -5.58406,-1.80131c-0.36026,0 -0.72052,0 -1.26092,-0.18013c-0.54039,0 -1.62118,-1.98144 -1.62118,0.54039c0,0.54039 -1.08079,0.90066 -1.80131,1.08079c-8.46616,1.80131 -16.39193,-0.90066 -24.31769,-3.24236c-5.58406,-1.62118 -8.1059,-8.1059 -8.46616,-12.78931c-0.54039,-6.12446 -1.98144,-7.74564 -8.28603,-7.02511c-0.72052,0 -1.44105,0.18013 -2.16157,0c-3.24236,-2.3417 -7.20524,0.90066 -10.62773,-1.44105c-0.36026,-0.36026 -0.36026,0.36026 -0.54039,0.72052c-1.44105,2.3417 -3.60262,1.98144 -5.58406,1.08079c-2.70197,-1.26092 -5.40393,-0.72052 -8.28603,-0.36026c-7.74564,1.08079 -15.49127,0.18013 -23.05678,-2.16157c-3.24236,-0.90066 -3.96288,-4.32315 -5.40393,-6.84498c-2.3417,-3.78275 -3.96288,-7.38537 -2.16157,-12.60917c3.06223,-8.46616 0.90066,-12.06878 -9.00655,-16.75219c-3.24236,-1.44105 -5.04367,-3.42249 -5.58406,-6.84498c-0.36026,-1.98144 -1.44105,-3.60262 -2.16157,-5.40393c-1.44105,-3.24236 -1.62118,-6.48472 1.08079,-9.18668c2.16157,-1.98144 1.62118,-4.68341 2.8821,-7.20524c-2.16157,-0.90066 -3.24236,0.54039 -4.68341,1.08079c-1.08079,0.54039 -2.16157,1.08079 -3.42249,1.62118c-0.72052,0.18013 -1.44105,0.36026 -2.3417,0.54039c-1.08079,0.18013 -2.3417,0.36026 -3.42249,0.54039c-0.72052,0.18013 -1.62118,0.18013 -2.3417,0.18013c-1.26092,0.18013 -2.52183,0 -3.96288,-0.36026c-0.90066,-0.18013 -1.80131,-0.54039 -2.70197,-0.90066c-3.60262,-1.26092 -6.66485,-3.42249 -9.36682,-6.12446c-1.62118,-1.80131 -2.16157,-3.96288 -1.80131,-6.30459c0.54039,-2.70197 1.62118,-5.04367 3.60262,-7.02511c1.08079,-1.08079 2.16157,-2.16157 3.42249,-3.06223c1.08079,-0.72052 2.16157,-1.62118 3.24236,-2.52183c0.90066,-0.72052 1.80131,-1.44105 2.70197,-1.98144c0.54039,-0.36026 1.08079,-0.54039 1.44105,-0.72052c1.08079,-0.54039 1.80131,-1.26092 2.52183,-2.16157c0.18013,-0.36026 0.54039,-0.72052 0.72052,-0.90066c1.08079,-1.08079 2.16157,-1.98144 3.42249,-2.8821c5.04367,-3.24236 5.04367,-8.82642 5.94433,-13.87009c0.36026,-1.44105 -1.08079,-1.98144 -2.3417,-2.16157c-4.32315,-0.54039 -7.92577,-2.70197 -11.88865,-3.96288c-0.72052,-0.18013 -1.26092,-0.54039 -1.80131,-0.90066c-2.16157,-0.90066 -2.8821,-3.06223 -3.42249,-5.04367c-0.36026,-1.44105 -0.18013,-2.8821 0.18013,-4.32315c0.72052,-1.80131 1.44105,-3.42249 3.06223,-4.68341c1.08079,-0.90066 1.98144,-1.80131 3.24236,-2.3417c5.58406,-3.24236 10.62773,-6.84498 12.78931,-13.3297c1.26092,-3.60262 4.86354,-4.68341 7.20524,-7.5655c-4.50328,0.72052 -8.64629,1.80131 -12.78931,2.70197c-1.80131,0.90066 -3.96288,1.08079 -5.94433,1.44105c-1.08079,0.18013 -2.3417,0.36026 -3.42249,0.54039c-0.72052,0 -1.62118,0.18013 -2.3417,0.18013c-0.90066,0 -1.62118,0.18013 -2.52183,0.18013c-0.72052,0 -1.44105,0 -1.98144,0c-4.14301,-0.72052 -7.92577,-2.52183 -11.52839,-4.32315c-1.62118,-1.08079 -3.06223,-2.52183 -4.32315,-3.78275c-0.90066,-0.90066 -1.26092,-2.16157 -1.26092,-3.42249c0,-3.06223 0.90066,-5.76419 2.52183,-8.28603c1.62118,-1.80131 3.60262,-3.24236 5.2238,-4.86354c1.26092,-1.26092 2.8821,-2.52183 2.16157,-4.68341c-0.72052,-1.98144 -2.52183,-1.98144 -4.14301,-1.98144c-7.38537,-0.36026 -14.23035,-2.3417 -20.71507,-5.76419c-3.42249,-1.80131 -6.30459,-4.14301 -7.02511,-8.28603c-0.72052,-3.96288 1.08079,-6.66485 4.14301,-8.82642c1.98144,-1.44105 2.70197,-2.3417 0.36026,-4.50328c-7.38537,-6.66485 -6.84498,-12.42904 1.26092,-18.73363c14.05022,-10.80786 29.90176,-17.65284 46.47381,-23.23691c5.04367,-1.62118 9.72708,-3.96288 14.77075,-5.76419c3.96288,-1.08079 7.74564,-2.3417 11.52839,-3.42249c1.26092,-0.36026 2.52183,-0.72052 3.78275,-1.26092c4.86354,-1.80131 4.86354,-1.80131 1.26092,-5.58406c-1.44105,-1.62118 -2.70197,-3.42249 -4.32315,-4.86354c-3.60262,-5.94433 -2.52183,-10.4476 3.24236,-15.13101c1.26092,-1.08079 2.70197,-1.98144 4.14301,-2.52183c1.44105,-0.36026 2.52183,-1.26092 3.60262,-1.98144c0.36026,-0.18013 0.72052,-0.36026 1.08079,-0.54039c1.44105,-0.90066 2.70197,-1.98144 3.96288,-3.24236c0.90066,-0.90066 1.98144,-1.44105 3.06223,-1.80131c1.98144,-0.54039 3.42249,-1.80131 5.2238,-2.70197c0.90066,-0.54039 1.98144,-1.08079 1.80131,-2.3417c-0.36026,-1.62118 -1.80131,-1.26092 -3.06223,-1.26092c-4.32315,0.18013 -8.28603,1.98144 -11.70852,3.96288c-2.8821,1.62118 -5.58406,2.70197 -8.82642,3.06223c-6.12446,0.36026 -11.88865,2.70197 -18.19324,2.70197c-3.42249,0 -4.32315,-1.62118 -3.42249,-4.50328c0.36026,-1.44105 0.90066,-2.8821 0,-4.32315c-0.54039,-1.08079 -0.54039,-2.16157 0.72052,-2.70197c2.52183,-1.26092 3.24236,-3.78275 4.32315,-6.12446c1.26092,-1.26092 2.8821,-1.98144 4.68341,-1.62118c0.72052,-0.54039 0.72052,2.16157 1.80131,0.36026c0.54039,-0.90066 1.62118,-1.26092 2.3417,-1.80131c1.80131,-0.90066 3.60262,-1.98144 5.76419,-1.44105c0.90066,0.54039 1.62118,0.54039 2.3417,-0.36026c0.36026,-0.18013 0.72052,-0.18013 1.26092,-0.18013c5.58406,0.90066 10.62773,-1.44105 15.85153,-2.16157c3.42249,-0.36026 6.66485,-1.80131 10.08734,-2.3417c9.18668,-1.62118 16.03166,-7.74564 23.05678,-13.14957c2.3417,-1.80131 5.2238,-2.8821 7.20524,-5.2238c1.62118,-1.26092 3.06223,-2.8821 5.04367,-4.14301c4.32315,-2.70197 7.38537,-6.30459 7.38537,-11.52839c0,-6.66485 3.60262,-10.62773 9.18668,-12.42904c13.3297,-3.96288 25.93887,-9.72708 39.4487,-12.96944c12.96944,-3.06223 26.119,-5.94433 39.08844,-9.18668c1.62118,-0.36026 3.24236,-1.08079 4.86354,-0.18013c0.54039,1.44105 0,2.8821 0,4.50328c-0.72052,0.90066 -1.62118,1.08079 -2.70197,1.44105c-1.98144,0.36026 -4.14301,0.54039 -6.12446,1.26092c1.26092,0 2.70197,-0.72052 3.06223,0.90066c0.36026,1.26092 -0.90066,1.98144 -1.80131,2.16157c-6.30459,1.08079 -7.74564,7.5655 -12.96944,10.62773c2.16157,1.26092 3.60262,0.54039 5.04367,0c2.8821,-1.08079 5.94433,-0.72052 8.82642,-1.44105c2.16157,-0.54039 4.32315,-0.18013 6.48472,-0.72052c12.24891,-1.44105 24.49782,-1.98144 36.92687,-1.44105c6.12446,0.18013 9.72708,3.42249 11.34826,9.00655c0,0.72052 0,1.44105 -0.18013,1.98144c-2.16157,4.68341 -3.60262,9.90721 -6.12446,14.41049c-1.44105,2.52183 -0.72052,4.86354 1.98144,6.66485c2.70197,1.80131 5.58406,3.42249 8.64629,3.24236c7.20524,-0.18013 14.23035,0.36026 21.4356,-1.98144c10.62773,-3.42249 21.79586,-5.40393 32.96399,-6.84498c3.96288,-0.54039 7.74564,-1.08079 11.16813,-3.06223c0.72052,-0.36026 1.62118,-0.54039 2.3417,-0.54039c1.62118,0 3.06223,-0.72052 4.50328,-1.26092c0.36026,-0.18013 0.72052,-0.18013 1.08079,-0.36026c1.80131,-0.36026 3.78275,-1.08079 5.58406,-0.90066c2.16157,0.36026 0.90066,-1.62118 1.62118,-1.98144c0.72052,-0.72052 1.80131,-1.26092 2.8821,-1.26092c0.72052,0 1.26092,0.18013 1.80131,0.54039c2.3417,1.98144 5.04367,0.90066 7.5655,1.08079c4.68341,2.52183 4.68341,6.12446 -0.72052,10.08734c-5.58406,4.14301 -10.08734,9.90721 -17.11245,12.06878c-0.54039,0.18013 -1.08079,0.54039 -1.08079,1.26092c1.26092,0.54039 2.52183,0.18013 3.42249,-0.36026c4.68341,-3.24236 9.00655,-1.26092 13.3297,0.54039c4.14301,1.44105 4.32315,3.78275 1.26092,8.82642c-3.60262,3.42249 -7.20524,6.66485 -9.36682,11.52839c-0.72052,1.44105 -1.80131,2.52183 -3.24236,3.60262c-1.26092,1.08079 -3.24236,2.52183 -1.80131,4.86354c0.36026,0.18013 0.54039,0.54039 0.72052,0.90066c0.54039,1.08079 0.90066,2.52183 1.98144,3.42249c0.90066,1.08079 1.44105,2.3417 1.26092,3.78275c-0.36026,1.08079 -0.54039,2.3417 -0.36026,3.42249c-0.18013,1.62118 0,3.60262 -2.3417,3.78275c-0.36026,-0.18013 -0.72052,-0.36026 -0.72052,-0.90066c-1.26092,3.42249 0,5.2238 3.24236,6.48472c4.32315,1.62118 7.74564,-0.90066 11.70852,-1.26092c0.72052,-0.36026 1.62118,-0.54039 2.3417,-0.54039c1.62118,0 3.06223,-0.36026 4.50328,-1.08079c1.80131,-0.90066 3.60262,-1.26092 5.58406,-1.98144c2.52183,-1.08079 5.40393,-1.26092 7.92577,-2.3417c2.8821,-1.08079 6.12446,-1.44105 9.00655,-2.52183c4.68341,-0.72052 9.18668,-3.06223 13.87009,0c1.44105,1.26092 2.3417,3.06223 3.24236,4.68341c2.16157,5.58406 -1.08079,10.08734 -3.24236,14.77075c-0.90066,1.08079 -1.62118,2.3417 -2.52183,3.42249c-0.90066,1.08079 -1.62118,2.16157 -2.3417,3.24236c-3.06223,3.78275 -6.84498,7.02511 -8.28603,11.88865c-0.54039,1.80131 -1.26092,3.60262 0.18013,5.40393c1.08079,1.26092 2.3417,0.90066 3.60262,0.54039c2.70197,-0.72052 5.58406,-1.26092 8.28603,-2.52183c3.24236,-1.44105 6.48472,-2.16157 9.90721,-3.24236c0.36026,-0.18013 0.72052,-0.36026 1.08079,-0.36026c2.16157,-1.08079 4.68341,-1.44105 7.02511,-2.52183c1.08079,-0.54039 2.16157,-1.26092 3.42249,-0.72052c0.18013,0.18013 0.54039,0.18013 0.90066,0c1.26092,-0.72052 2.70197,-1.26092 3.96288,-2.16157c1.08079,-0.72052 2.3417,-1.26092 3.60262,-1.44105c1.08079,0 2.16157,0 3.06223,-0.72052c0.72052,-0.54039 1.62118,-0.90066 2.52183,-1.08079c1.26092,-0.18013 2.52183,-0.72052 3.60262,-1.26092c0.72052,-0.18013 1.44105,-0.36026 2.16157,-0.54039c1.26092,-0.36026 2.52183,-0.90066 3.78275,-1.44105c0.36026,-0.18013 0.72052,-0.36026 1.08079,-0.36026c2.16157,-0.36026 4.14301,-0.90066 5.94433,-2.16157c0.54039,-0.36026 1.08079,-0.54039 1.62118,-0.72052c1.98144,-0.72052 4.14301,-1.08079 6.30459,-1.80131c0.36026,-0.18013 0.72052,-0.36026 1.26092,-0.36026c1.44105,-0.54039 3.06223,-0.36026 4.50328,-0.72052c6.84498,-1.26092 7.92577,-0.72052 11.34826,5.76419c0.18013,0.36026 0.18013,0.90066 0.18013,1.44105c-1.08079,8.1059 -4.50328,15.31114 -10.08734,21.25547c-0.36026,0.36026 -0.72052,0.54039 -1.08079,0.90066c-1.26092,0.90066 -2.70197,1.26092 -4.14301,1.98144c-2.52183,0.90066 -4.68341,2.52183 -7.20524,3.78275c-0.90066,0.36026 -1.98144,0.72052 -2.8821,1.08079c-2.52183,0.36026 -4.68341,1.44105 -7.02511,2.52183c-0.36026,0.18013 -0.72052,0.36026 -1.08079,0.54039c-8.1059,2.52183 -16.03166,5.58406 -24.13756,8.1059c-1.80131,0.72052 -3.60262,1.44105 -5.58406,1.98144c-0.90066,3.42249 1.80131,6.84498 -0.18013,10.26747c-0.36026,2.3417 0.18013,3.42249 2.8821,2.8821c4.86354,-0.72052 9.36682,-2.16157 13.87009,-3.96288c3.60262,-1.26092 7.02511,-0.72052 10.62773,-1.80131c6.84498,-2.16157 14.05022,-3.24236 21.25547,-3.96288c2.16157,-0.18013 3.78275,0.18013 5.2238,1.98144c1.26092,1.80131 1.08079,3.60262 0.18013,5.58406c-1.80131,3.60262 -14.05022,13.87009 -18.01311,14.95088c-0.72052,0.18013 -1.44105,0.54039 -2.16157,0.90066c-0.54039,0.36026 -1.08079,0.54039 -1.80131,0.54039c-1.26092,0.18013 -2.3417,0.36026 -3.24236,1.08079c-0.36026,0.18013 -0.72052,0.36026 -1.08079,0.54039c-5.2238,1.44105 -5.2238,1.44105 -2.52183,5.58406c0.18013,0.36026 0.72052,0.72052 0.72052,1.08079c-0.18013,5.76419 3.24236,9.90721 6.66485,13.87009c-1.98144,5.76419 -1.98144,5.76419 2.70197,10.08734c3.60262,3.06223 3.78275,4.86354 1.44105,9.00655c-0.72052,1.08079 -1.44105,2.3417 -2.52183,3.24236c-3.24236,2.70197 -6.48472,5.40393 -8.64629,9.00655c-0.72052,1.26092 -2.3417,1.98144 -3.78275,2.3417c-0.90066,0 -1.80131,0.18013 -2.16157,1.26092c-0.54039,0.36026 -1.08079,0.72052 -1.62118,0.72052c-3.60262,0 -5.2238,3.24236 -7.92577,4.68341c-7.02511,4.14301 -14.77075,6.84498 -20.53494,12.78931c-0.90066,0.90066 -2.16157,1.44105 -1.98144,2.8821c0.18013,1.80131 2.16157,1.44105 3.24236,1.62118c5.94433,0.72052 11.70852,0.18013 17.65284,0c4.14301,2.52183 4.32315,3.42249 2.16157,7.38537c-0.54039,1.08079 -1.08079,2.16157 -1.80131,3.06223c-1.62118,1.80131 -3.24236,3.60262 -4.68341,5.40393c-1.98144,2.3417 -1.62118,4.86354 1.08079,5.76419c7.20524,2.3417 7.20524,5.94433 2.8821,12.06878c-3.96288,5.76419 -8.28603,11.34826 -14.77075,14.77075c-2.16157,0.90066 -3.96288,1.98144 -5.94433,3.24236c-2.70197,1.80131 -3.78275,3.60262 -1.98144,6.66485c1.26092,1.98144 0.36026,3.60262 -0.72052,5.40393c-4.86354,9.00655 -12.24891,15.85153 -19.99455,22.33625c-3.06223,2.52183 -5.94433,5.04367 -8.82642,7.74564c-1.62118,1.62118 -1.98144,3.06223 0.36026,4.32315c0.36026,0.18013 0.72052,0.54039 0.90066,0.72052c0.54039,0.54039 1.08079,1.26092 1.62118,1.80131c0.72052,0.90066 0.36026,1.98144 0.72052,2.8821l0,0c1.26092,1.26092 1.62118,3.06223 1.08079,4.50328c-4.50328,9.72708 -8.64629,19.63429 -18.37337,25.57861c-1.44105,0.90066 -2.8821,1.62118 -4.50328,1.80131l0.18013,0.18013l-0.18013,-0.18013c-1.98144,2.8821 -4.68341,4.50328 -8.1059,5.58406l0,0c-2.3417,2.3417 -4.86354,4.32315 -8.1059,5.58406l0,0c-1.08079,1.44105 -2.3417,2.8821 -4.32315,3.06223l0,0c-1.80131,2.16157 -3.60262,4.14301 -6.66485,4.14301c-0.36026,0.18013 -0.72052,0.36026 -1.08079,0.72052c-1.44105,1.80131 -2.8821,3.60262 -5.58406,3.42249c-1.26092,0.18013 -2.16157,0.72052 -2.70197,1.80131c-3.78275,3.42249 -7.74564,6.30459 -12.60917,7.5655l0,0c-3.42249,3.96288 -7.92577,4.68341 -11.88865,6.48472z" fill="#00eeff"/></g><g transform="translate(349,349)"><defs><rect id="block" width="29" height="29" fill="#000000" fill-opacity="0.99212598425197"/></defs><rect x="0" y="0" width="1166" height="1166" fill="#ffffff" fill-opacity="0.99212598425197"/><use x="46" y="46" xlink:href="#block"/><use x="75" y="46" xlink:href="#block"/><use x="104" y="46" xlink:href="#block"/><use x="133" y="46" xlink:href="#block"/><use x="162" y="46" xlink:href="#block"/><use x="191" y="46" xlink:href="#block"/><use x="220" y="46" xlink:href="#block"/><use x="278" y="46" xlink:href="#block"/><use x="307" y="46" xlink:href="#block"/><use x="394" y="46" xlink:href="#block"/><use x="626" y="46" xlink:href="#block"/><use x="655" y="46" xlink:href="#block"/><use x="684" y="46" xlink:href="#block"/><use x="713" y="46" xlink:href="#block"/><use x="771" y="46" xlink:href="#block"/><use x="829" y="46" xlink:href="#block"/><use x="916" y="46" xlink:href="#block"/><use x="945" y="46" xlink:href="#block"/><use x="974" y="46" xlink:href="#block"/><use x="1003" y="46" xlink:href="#block"/><use x="1032" y="46" xlink:href="#block"/><use x="1061" y="46" xlink:href="#block"/><use x="1090" y="46" xlink:href="#block"/><use x="46" y="75" xlink:href="#block"/><use x="220" y="75" xlink:href="#block"/><use x="307" y="75" xlink:href="#block"/><use x="336" y="75" xlink:href="#block"/><use x="452" y="75" xlink:href="#block"/><use x="481" y="75" xlink:href="#block"/><use x="539" y="75" xlink:href="#block"/><use x="597" y="75" xlink:href="#block"/><use x="626" y="75" xlink:href="#block"/><use x="655" y="75" xlink:href="#block"/><use x="684" y="75" xlink:href="#block"/><use x="742" y="75" xlink:href="#block"/><use x="771" y="75" xlink:href="#block"/><use x="800" y="75" xlink:href="#block"/><use x="916" y="75" xlink:href="#block"/><use x="1090" y="75" xlink:href="#block"/><use x="46" y="104" xlink:href="#block"/><use x="104" y="104" xlink:href="#block"/><use x="133" y="104" xlink:href="#block"/><use x="162" y="104" xlink:href="#block"/><use x="220" y="104" xlink:href="#block"/><use x="278" y="104" xlink:href="#block"/><use x="336" y="104" xlink:href="#block"/><use x="394" y="104" xlink:href="#block"/><use x="423" y="104" xlink:href="#block"/><use x="452" y="104" xlink:href="#block"/><use x="481" y="104" xlink:href="#block"/><use x="510" y="104" xlink:href="#block"/><use x="539" y="104" xlink:href="#block"/><use x="742" y="104" xlink:href="#block"/><use x="858" y="104" xlink:href="#block"/><use x="916" y="104" xlink:href="#block"/><use x="974" y="104" xlink:href="#block"/><use x="1003" y="104" xlink:href="#block"/><use x="1032" y="104" xlink:href="#block"/><use x="1090" y="104" xlink:href="#block"/><use x="46" y="133" xlink:href="#block"/><use x="104" y="133" xlink:href="#block"/><use x="133" y="133" xlink:href="#block"/><use x="162" y="133" xlink:href="#block"/><use x="220" y="133" xlink:href="#block"/><use x="307" y="133" xlink:href="#block"/><use x="452" y="133" xlink:href="#block"/><use x="481" y="133" xlink:href="#block"/><use x="568" y="133" xlink:href="#block"/><use x="597" y="133" xlink:href="#block"/><use x="713" y="133" xlink:href="#block"/><use x="858" y="133" xlink:href="#block"/><use x="916" y="133" xlink:href="#block"/><use x="974" y="133" xlink:href="#block"/><use x="1003" y="133" xlink:href="#block"/><use x="1032" y="133" xlink:href="#block"/><use x="1090" y="133" xlink:href="#block"/><use x="46" y="162" xlink:href="#block"/><use x="104" y="162" xlink:href="#block"/><use x="133" y="162" xlink:href="#block"/><use x="162" y="162" xlink:href="#block"/><use x="220" y="162" xlink:href="#block"/><use x="278" y="162" xlink:href="#block"/><use x="307" y="162" xlink:href="#block"/><use x="394" y="162" xlink:href="#block"/><use x="423" y="162" xlink:href="#block"/><use x="481" y="162" xlink:href="#block"/><use x="568" y="162" xlink:href="#block"/><use x="626" y="162" xlink:href="#block"/><use x="742" y="162" xlink:href="#block"/><use x="800" y="162" xlink:href="#block"/><use x="916" y="162" xlink:href="#block"/><use x="974" y="162" xlink:href="#block"/><use x="1003" y="162" xlink:href="#block"/><use x="1032" y="162" xlink:href="#block"/><use x="1090" y="162" xlink:href="#block"/><use x="46" y="191" xlink:href="#block"/><use x="220" y="191" xlink:href="#block"/><use x="307" y="191" xlink:href="#block"/><use x="336" y="191" xlink:href="#block"/><use x="394" y="191" xlink:href="#block"/><use x="423" y="191" xlink:href="#block"/><use x="539" y="191" xlink:href="#block"/><use x="568" y="191" xlink:href="#block"/><use x="597" y="191" xlink:href="#block"/><use x="655" y="191" xlink:href="#block"/><use x="829" y="191" xlink:href="#block"/><use x="858" y="191" xlink:href="#block"/><use x="916" y="191" xlink:href="#block"/><use x="1090" y="191" xlink:href="#block"/><use x="46" y="220" xlink:href="#block"/><use x="75" y="220" xlink:href="#block"/><use x="104" y="220" xlink:href="#block"/><use x="133" y="220" xlink:href="#block"/><use x="162" y="220" xlink:href="#block"/><use x="191" y="220" xlink:href="#block"/><use x="220" y="220" xlink:href="#block"/><use x="278" y="220" xlink:href="#block"/><use x="336" y="220" xlink:href="#block"/><use x="394" y="220" xlink:href="#block"/><use x="452" y="220" xlink:href="#block"/><use x="510" y="220" xlink:href="#block"/><use x="568" y="220" xlink:href="#block"/><use x="626" y="220" xlink:href="#block"/><use x="684" y="220" xlink:href="#block"/><use x="742" y="220" xlink:href="#block"/><use x="800" y="220" xlink:href="#block"/><use x="858" y="220" xlink:href="#block"/><use x="916" y="220" xlink:href="#block"/><use x="945" y="220" xlink:href="#block"/><use x="974" y="220" xlink:href="#block"/><use x="1003" y="220" xlink:href="#block"/><use x="1032" y="220" xlink:href="#block"/><use x="1061" y="220" xlink:href="#block"/><use x="1090" y="220" xlink:href="#block"/><use x="278" y="249" xlink:href="#block"/><use x="365" y="249" xlink:href="#block"/><use x="423" y="249" xlink:href="#block"/><use x="452" y="249" xlink:href="#block"/><use x="481" y="249" xlink:href="#block"/><use x="510" y="249" xlink:href="#block"/><use x="568" y="249" xlink:href="#block"/><use x="597" y="249" xlink:href="#block"/><use x="655" y="249" xlink:href="#block"/><use x="684" y="249" xlink:href="#block"/><use x="713" y="249" xlink:href="#block"/><use x="800" y="249" xlink:href="#block"/><use x="829" y="249" xlink:href="#block"/><use x="191" y="278" xlink:href="#block"/><use x="220" y="278" xlink:href="#block"/><use x="307" y="278" xlink:href="#block"/><use x="365" y="278" xlink:href="#block"/><use x="394" y="278" xlink:href="#block"/><use x="510" y="278" xlink:href="#block"/><use x="568" y="278" xlink:href="#block"/><use x="597" y="278" xlink:href="#block"/><use x="626" y="278" xlink:href="#block"/><use x="742" y="278" xlink:href="#block"/><use x="829" y="278" xlink:href="#block"/><use x="916" y="278" xlink:href="#block"/><use x="974" y="278" xlink:href="#block"/><use x="1032" y="278" xlink:href="#block"/><use x="1090" y="278" xlink:href="#block"/><use x="46" y="307" xlink:href="#block"/><use x="104" y="307" xlink:href="#block"/><use x="162" y="307" xlink:href="#block"/><use x="191" y="307" xlink:href="#block"/><use x="336" y="307" xlink:href="#block"/><use x="365" y="307" xlink:href="#block"/><use x="423" y="307" xlink:href="#block"/><use x="452" y="307" xlink:href="#block"/><use x="481" y="307" xlink:href="#block"/><use x="510" y="307" xlink:href="#block"/><use x="539" y="307" xlink:href="#block"/><use x="597" y="307" xlink:href="#block"/><use x="655" y="307" xlink:href="#block"/><use x="742" y="307" xlink:href="#block"/><use x="887" y="307" xlink:href="#block"/><use x="916" y="307" xlink:href="#block"/><use x="974" y="307" xlink:href="#block"/><use x="1003" y="307" xlink:href="#block"/><use x="1032" y="307" xlink:href="#block"/><use x="1090" y="307" xlink:href="#block"/><use x="46" y="336" xlink:href="#block"/><use x="75" y="336" xlink:href="#block"/><use x="104" y="336" xlink:href="#block"/><use x="162" y="336" xlink:href="#block"/><use x="191" y="336" xlink:href="#block"/><use x="220" y="336" xlink:href="#block"/><use x="307" y="336" xlink:href="#block"/><use x="365" y="336" xlink:href="#block"/><use x="423" y="336" xlink:href="#block"/><use x="597" y="336" xlink:href="#block"/><use x="626" y="336" xlink:href="#block"/><use x="655" y="336" xlink:href="#block"/><use x="742" y="336" xlink:href="#block"/><use x="771" y="336" xlink:href="#block"/><use x="887" y="336" xlink:href="#block"/><use x="916" y="336" xlink:href="#block"/><use x="945" y="336" xlink:href="#block"/><use x="1032" y="336" xlink:href="#block"/><use x="1061" y="336" xlink:href="#block"/><use x="75" y="365" xlink:href="#block"/><use x="104" y="365" xlink:href="#block"/><use x="133" y="365" xlink:href="#block"/><use x="191" y="365" xlink:href="#block"/><use x="336" y="365" xlink:href="#block"/><use x="365" y="365" xlink:href="#block"/><use x="394" y="365" xlink:href="#block"/><use x="423" y="365" xlink:href="#block"/><use x="510" y="365" xlink:href="#block"/><use x="597" y="365" xlink:href="#block"/><use x="626" y="365" xlink:href="#block"/><use x="684" y="365" xlink:href="#block"/><use x="742" y="365" xlink:href="#block"/><use x="771" y="365" xlink:href="#block"/><use x="829" y="365" xlink:href="#block"/><use x="858" y="365" xlink:href="#block"/><use x="887" y="365" xlink:href="#block"/><use x="75" y="394" xlink:href="#block"/><use x="162" y="394" xlink:href="#block"/><use x="191" y="394" xlink:href="#block"/><use x="220" y="394" xlink:href="#block"/><use x="307" y="394" xlink:href="#block"/><use x="336" y="394" xlink:href="#block"/><use x="452" y="394" xlink:href="#block"/><use x="481" y="394" xlink:href="#block"/><use x="539" y="394" xlink:href="#block"/><use x="626" y="394" xlink:href="#block"/><use x="684" y="394" xlink:href="#block"/><use x="713" y="394" xlink:href="#block"/><use x="742" y="394" xlink:href="#block"/><use x="858" y="394" xlink:href="#block"/><use x="916" y="394" xlink:href="#block"/><use x="974" y="394" xlink:href="#block"/><use x="1090" y="394" xlink:href="#block"/><use x="46" y="423" xlink:href="#block"/><use x="365" y="423" xlink:href="#block"/><use x="394" y="423" xlink:href="#block"/><use x="423" y="423" xlink:href="#block"/><use x="452" y="423" xlink:href="#block"/><use x="481" y="423" xlink:href="#block"/><use x="510" y="423" xlink:href="#block"/><use x="597" y="423" xlink:href="#block"/><use x="684" y="423" xlink:href="#block"/><use x="742" y="423" xlink:href="#block"/><use x="800" y="423" xlink:href="#block"/><use x="858" y="423" xlink:href="#block"/><use x="916" y="423" xlink:href="#block"/><use x="974" y="423" xlink:href="#block"/><use x="1061" y="423" xlink:href="#block"/><use x="75" y="452" xlink:href="#block"/><use x="133" y="452" xlink:href="#block"/><use x="191" y="452" xlink:href="#block"/><use x="220" y="452" xlink:href="#block"/><use x="278" y="452" xlink:href="#block"/><use x="307" y="452" xlink:href="#block"/><use x="336" y="452" xlink:href="#block"/><use x="394" y="452" xlink:href="#block"/><use x="452" y="452" xlink:href="#block"/><use x="481" y="452" xlink:href="#block"/><use x="568" y="452" xlink:href="#block"/><use x="655" y="452" xlink:href="#block"/><use x="742" y="452" xlink:href="#block"/><use x="771" y="452" xlink:href="#block"/><use x="800" y="452" xlink:href="#block"/><use x="887" y="452" xlink:href="#block"/><use x="916" y="452" xlink:href="#block"/><use x="974" y="452" xlink:href="#block"/><use x="1003" y="452" xlink:href="#block"/><use x="1032" y="452" xlink:href="#block"/><use x="1061" y="452" xlink:href="#block"/><use x="75" y="481" xlink:href="#block"/><use x="162" y="481" xlink:href="#block"/><use x="249" y="481" xlink:href="#block"/><use x="365" y="481" xlink:href="#block"/><use x="394" y="481" xlink:href="#block"/><use x="452" y="481" xlink:href="#block"/><use x="481" y="481" xlink:href="#block"/><use x="597" y="481" xlink:href="#block"/><use x="626" y="481" xlink:href="#block"/><use x="829" y="481" xlink:href="#block"/><use x="945" y="481" xlink:href="#block"/><use x="974" y="481" xlink:href="#block"/><use x="1032" y="481" xlink:href="#block"/><use x="104" y="510" xlink:href="#block"/><use x="191" y="510" xlink:href="#block"/><use x="220" y="510" xlink:href="#block"/><use x="452" y="510" xlink:href="#block"/><use x="539" y="510" xlink:href="#block"/><use x="568" y="510" xlink:href="#block"/><use x="597" y="510" xlink:href="#block"/><use x="655" y="510" xlink:href="#block"/><use x="742" y="510" xlink:href="#block"/><use x="771" y="510" xlink:href="#block"/><use x="800" y="510" xlink:href="#block"/><use x="829" y="510" xlink:href="#block"/><use x="887" y="510" xlink:href="#block"/><use x="945" y="510" xlink:href="#block"/><use x="1061" y="510" xlink:href="#block"/><use x="1090" y="510" xlink:href="#block"/><use x="46" y="539" xlink:href="#block"/><use x="104" y="539" xlink:href="#block"/><use x="162" y="539" xlink:href="#block"/><use x="249" y="539" xlink:href="#block"/><use x="307" y="539" xlink:href="#block"/><use x="336" y="539" xlink:href="#block"/><use x="365" y="539" xlink:href="#block"/><use x="394" y="539" xlink:href="#block"/><use x="423" y="539" xlink:href="#block"/><use x="510" y="539" xlink:href="#block"/><use x="684" y="539" xlink:href="#block"/><use x="713" y="539" xlink:href="#block"/><use x="742" y="539" xlink:href="#block"/><use x="858" y="539" xlink:href="#block"/><use x="1003" y="539" xlink:href="#block"/><use x="1090" y="539" xlink:href="#block"/><use x="191" y="568" xlink:href="#block"/><use x="220" y="568" xlink:href="#block"/><use x="278" y="568" xlink:href="#block"/><use x="365" y="568" xlink:href="#block"/><use x="481" y="568" xlink:href="#block"/><use x="539" y="568" xlink:href="#block"/><use x="568" y="568" xlink:href="#block"/><use x="684" y="568" xlink:href="#block"/><use x="800" y="568" xlink:href="#block"/><use x="829" y="568" xlink:href="#block"/><use x="858" y="568" xlink:href="#block"/><use x="916" y="568" xlink:href="#block"/><use x="945" y="568" xlink:href="#block"/><use x="1003" y="568" xlink:href="#block"/><use x="1090" y="568" xlink:href="#block"/><use x="75" y="597" xlink:href="#block"/><use x="104" y="597" xlink:href="#block"/><use x="249" y="597" xlink:href="#block"/><use x="365" y="597" xlink:href="#block"/><use x="423" y="597" xlink:href="#block"/><use x="452" y="597" xlink:href="#block"/><use x="568" y="597" xlink:href="#block"/><use x="597" y="597" xlink:href="#block"/><use x="655" y="597" xlink:href="#block"/><use x="742" y="597" xlink:href="#block"/><use x="771" y="597" xlink:href="#block"/><use x="829" y="597" xlink:href="#block"/><use x="858" y="597" xlink:href="#block"/><use x="945" y="597" xlink:href="#block"/><use x="1003" y="597" xlink:href="#block"/><use x="46" y="626" xlink:href="#block"/><use x="75" y="626" xlink:href="#block"/><use x="104" y="626" xlink:href="#block"/><use x="133" y="626" xlink:href="#block"/><use x="191" y="626" xlink:href="#block"/><use x="220" y="626" xlink:href="#block"/><use x="278" y="626" xlink:href="#block"/><use x="336" y="626" xlink:href="#block"/><use x="365" y="626" xlink:href="#block"/><use x="394" y="626" xlink:href="#block"/><use x="452" y="626" xlink:href="#block"/><use x="481" y="626" xlink:href="#block"/><use x="510" y="626" xlink:href="#block"/><use x="539" y="626" xlink:href="#block"/><use x="568" y="626" xlink:href="#block"/><use x="800" y="626" xlink:href="#block"/><use x="829" y="626" xlink:href="#block"/><use x="858" y="626" xlink:href="#block"/><use x="887" y="626" xlink:href="#block"/><use x="1032" y="626" xlink:href="#block"/><use x="75" y="655" xlink:href="#block"/><use x="133" y="655" xlink:href="#block"/><use x="191" y="655" xlink:href="#block"/><use x="249" y="655" xlink:href="#block"/><use x="278" y="655" xlink:href="#block"/><use x="307" y="655" xlink:href="#block"/><use x="336" y="655" xlink:href="#block"/><use x="394" y="655" xlink:href="#block"/><use x="539" y="655" xlink:href="#block"/><use x="568" y="655" xlink:href="#block"/><use x="655" y="655" xlink:href="#block"/><use x="713" y="655" xlink:href="#block"/><use x="771" y="655" xlink:href="#block"/><use x="829" y="655" xlink:href="#block"/><use x="858" y="655" xlink:href="#block"/><use x="887" y="655" xlink:href="#block"/><use x="916" y="655" xlink:href="#block"/><use x="945" y="655" xlink:href="#block"/><use x="974" y="655" xlink:href="#block"/><use x="1032" y="655" xlink:href="#block"/><use x="1061" y="655" xlink:href="#block"/><use x="75" y="684" xlink:href="#block"/><use x="104" y="684" xlink:href="#block"/><use x="162" y="684" xlink:href="#block"/><use x="191" y="684" xlink:href="#block"/><use x="220" y="684" xlink:href="#block"/><use x="336" y="684" xlink:href="#block"/><use x="365" y="684" xlink:href="#block"/><use x="452" y="684" xlink:href="#block"/><use x="481" y="684" xlink:href="#block"/><use x="597" y="684" xlink:href="#block"/><use x="684" y="684" xlink:href="#block"/><use x="771" y="684" xlink:href="#block"/><use x="800" y="684" xlink:href="#block"/><use x="829" y="684" xlink:href="#block"/><use x="858" y="684" xlink:href="#block"/><use x="887" y="684" xlink:href="#block"/><use x="945" y="684" xlink:href="#block"/><use x="974" y="684" xlink:href="#block"/><use x="1003" y="684" xlink:href="#block"/><use x="1032" y="684" xlink:href="#block"/><use x="1061" y="684" xlink:href="#block"/><use x="75" y="713" xlink:href="#block"/><use x="162" y="713" xlink:href="#block"/><use x="191" y="713" xlink:href="#block"/><use x="365" y="713" xlink:href="#block"/><use x="394" y="713" xlink:href="#block"/><use x="423" y="713" xlink:href="#block"/><use x="510" y="713" xlink:href="#block"/><use x="626" y="713" xlink:href="#block"/><use x="655" y="713" xlink:href="#block"/><use x="684" y="713" xlink:href="#block"/><use x="713" y="713" xlink:href="#block"/><use x="771" y="713" xlink:href="#block"/><use x="829" y="713" xlink:href="#block"/><use x="858" y="713" xlink:href="#block"/><use x="945" y="713" xlink:href="#block"/><use x="1003" y="713" xlink:href="#block"/><use x="1032" y="713" xlink:href="#block"/><use x="46" y="742" xlink:href="#block"/><use x="75" y="742" xlink:href="#block"/><use x="133" y="742" xlink:href="#block"/><use x="162" y="742" xlink:href="#block"/><use x="191" y="742" xlink:href="#block"/><use x="220" y="742" xlink:href="#block"/><use x="249" y="742" xlink:href="#block"/><use x="394" y="742" xlink:href="#block"/><use x="423" y="742" xlink:href="#block"/><use x="452" y="742" xlink:href="#block"/><use x="510" y="742" xlink:href="#block"/><use x="539" y="742" xlink:href="#block"/><use x="597" y="742" xlink:href="#block"/><use x="655" y="742" xlink:href="#block"/><use x="742" y="742" xlink:href="#block"/><use x="771" y="742" xlink:href="#block"/><use x="829" y="742" xlink:href="#block"/><use x="945" y="742" xlink:href="#block"/><use x="974" y="742" xlink:href="#block"/><use x="1090" y="742" xlink:href="#block"/><use x="46" y="771" xlink:href="#block"/><use x="75" y="771" xlink:href="#block"/><use x="104" y="771" xlink:href="#block"/><use x="162" y="771" xlink:href="#block"/><use x="191" y="771" xlink:href="#block"/><use x="249" y="771" xlink:href="#block"/><use x="307" y="771" xlink:href="#block"/><use x="365" y="771" xlink:href="#block"/><use x="394" y="771" xlink:href="#block"/><use x="481" y="771" xlink:href="#block"/><use x="568" y="771" xlink:href="#block"/><use x="597" y="771" xlink:href="#block"/><use x="655" y="771" xlink:href="#block"/><use x="684" y="771" xlink:href="#block"/><use x="916" y="771" xlink:href="#block"/><use x="945" y="771" xlink:href="#block"/><use x="974" y="771" xlink:href="#block"/><use x="1061" y="771" xlink:href="#block"/><use x="1090" y="771" xlink:href="#block"/><use x="46" y="800" xlink:href="#block"/><use x="104" y="800" xlink:href="#block"/><use x="133" y="800" xlink:href="#block"/><use x="191" y="800" xlink:href="#block"/><use x="220" y="800" xlink:href="#block"/><use x="307" y="800" xlink:href="#block"/><use x="336" y="800" xlink:href="#block"/><use x="365" y="800" xlink:href="#block"/><use x="394" y="800" xlink:href="#block"/><use x="423" y="800" xlink:href="#block"/><use x="452" y="800" xlink:href="#block"/><use x="481" y="800" xlink:href="#block"/><use x="510" y="800" xlink:href="#block"/><use x="684" y="800" xlink:href="#block"/><use x="713" y="800" xlink:href="#block"/><use x="742" y="800" xlink:href="#block"/><use x="771" y="800" xlink:href="#block"/><use x="829" y="800" xlink:href="#block"/><use x="858" y="800" xlink:href="#block"/><use x="887" y="800" xlink:href="#block"/><use x="916" y="800" xlink:href="#block"/><use x="974" y="800" xlink:href="#block"/><use x="1003" y="800" xlink:href="#block"/><use x="1061" y="800" xlink:href="#block"/><use x="46" y="829" xlink:href="#block"/><use x="249" y="829" xlink:href="#block"/><use x="278" y="829" xlink:href="#block"/><use x="307" y="829" xlink:href="#block"/><use x="394" y="829" xlink:href="#block"/><use x="423" y="829" xlink:href="#block"/><use x="452" y="829" xlink:href="#block"/><use x="481" y="829" xlink:href="#block"/><use x="510" y="829" xlink:href="#block"/><use x="568" y="829" xlink:href="#block"/><use x="597" y="829" xlink:href="#block"/><use x="626" y="829" xlink:href="#block"/><use x="655" y="829" xlink:href="#block"/><use x="713" y="829" xlink:href="#block"/><use x="771" y="829" xlink:href="#block"/><use x="800" y="829" xlink:href="#block"/><use x="858" y="829" xlink:href="#block"/><use x="887" y="829" xlink:href="#block"/><use x="945" y="829" xlink:href="#block"/><use x="1032" y="829" xlink:href="#block"/><use x="46" y="858" xlink:href="#block"/><use x="104" y="858" xlink:href="#block"/><use x="133" y="858" xlink:href="#block"/><use x="162" y="858" xlink:href="#block"/><use x="191" y="858" xlink:href="#block"/><use x="220" y="858" xlink:href="#block"/><use x="249" y="858" xlink:href="#block"/><use x="307" y="858" xlink:href="#block"/><use x="336" y="858" xlink:href="#block"/><use x="394" y="858" xlink:href="#block"/><use x="452" y="858" xlink:href="#block"/><use x="568" y="858" xlink:href="#block"/><use x="713" y="858" xlink:href="#block"/><use x="742" y="858" xlink:href="#block"/><use x="771" y="858" xlink:href="#block"/><use x="800" y="858" xlink:href="#block"/><use x="829" y="858" xlink:href="#block"/><use x="858" y="858" xlink:href="#block"/><use x="887" y="858" xlink:href="#block"/><use x="916" y="858" xlink:href="#block"/><use x="945" y="858" xlink:href="#block"/><use x="974" y="858" xlink:href="#block"/><use x="1003" y="858" xlink:href="#block"/><use x="1061" y="858" xlink:href="#block"/><use x="1090" y="858" xlink:href="#block"/><use x="278" y="887" xlink:href="#block"/><use x="307" y="887" xlink:href="#block"/><use x="365" y="887" xlink:href="#block"/><use x="539" y="887" xlink:href="#block"/><use x="597" y="887" xlink:href="#block"/><use x="626" y="887" xlink:href="#block"/><use x="800" y="887" xlink:href="#block"/><use x="858" y="887" xlink:href="#block"/><use x="974" y="887" xlink:href="#block"/><use x="1003" y="887" xlink:href="#block"/><use x="46" y="916" xlink:href="#block"/><use x="75" y="916" xlink:href="#block"/><use x="104" y="916" xlink:href="#block"/><use x="133" y="916" xlink:href="#block"/><use x="162" y="916" xlink:href="#block"/><use x="191" y="916" xlink:href="#block"/><use x="220" y="916" xlink:href="#block"/><use x="423" y="916" xlink:href="#block"/><use x="481" y="916" xlink:href="#block"/><use x="568" y="916" xlink:href="#block"/><use x="713" y="916" xlink:href="#block"/><use x="742" y="916" xlink:href="#block"/><use x="800" y="916" xlink:href="#block"/><use x="829" y="916" xlink:href="#block"/><use x="858" y="916" xlink:href="#block"/><use x="916" y="916" xlink:href="#block"/><use x="974" y="916" xlink:href="#block"/><use x="1003" y="916" xlink:href="#block"/><use x="1061" y="916" xlink:href="#block"/><use x="1090" y="916" xlink:href="#block"/><use x="46" y="945" xlink:href="#block"/><use x="220" y="945" xlink:href="#block"/><use x="278" y="945" xlink:href="#block"/><use x="307" y="945" xlink:href="#block"/><use x="336" y="945" xlink:href="#block"/><use x="365" y="945" xlink:href="#block"/><use x="423" y="945" xlink:href="#block"/><use x="452" y="945" xlink:href="#block"/><use x="481" y="945" xlink:href="#block"/><use x="510" y="945" xlink:href="#block"/><use x="539" y="945" xlink:href="#block"/><use x="568" y="945" xlink:href="#block"/><use x="626" y="945" xlink:href="#block"/><use x="655" y="945" xlink:href="#block"/><use x="684" y="945" xlink:href="#block"/><use x="713" y="945" xlink:href="#block"/><use x="771" y="945" xlink:href="#block"/><use x="858" y="945" xlink:href="#block"/><use x="974" y="945" xlink:href="#block"/><use x="1032" y="945" xlink:href="#block"/><use x="46" y="974" xlink:href="#block"/><use x="104" y="974" xlink:href="#block"/><use x="133" y="974" xlink:href="#block"/><use x="162" y="974" xlink:href="#block"/><use x="220" y="974" xlink:href="#block"/><use x="336" y="974" xlink:href="#block"/><use x="365" y="974" xlink:href="#block"/><use x="423" y="974" xlink:href="#block"/><use x="510" y="974" xlink:href="#block"/><use x="568" y="974" xlink:href="#block"/><use x="771" y="974" xlink:href="#block"/><use x="800" y="974" xlink:href="#block"/><use x="829" y="974" xlink:href="#block"/><use x="858" y="974" xlink:href="#block"/><use x="887" y="974" xlink:href="#block"/><use x="916" y="974" xlink:href="#block"/><use x="945" y="974" xlink:href="#block"/><use x="974" y="974" xlink:href="#block"/><use x="1003" y="974" xlink:href="#block"/><use x="1061" y="974" xlink:href="#block"/><use x="1090" y="974" xlink:href="#block"/><use x="46" y="1003" xlink:href="#block"/><use x="104" y="1003" xlink:href="#block"/><use x="133" y="1003" xlink:href="#block"/><use x="162" y="1003" xlink:href="#block"/><use x="220" y="1003" xlink:href="#block"/><use x="336" y="1003" xlink:href="#block"/><use x="365" y="1003" xlink:href="#block"/><use x="394" y="1003" xlink:href="#block"/><use x="423" y="1003" xlink:href="#block"/><use x="452" y="1003" xlink:href="#block"/><use x="510" y="1003" xlink:href="#block"/><use x="539" y="1003" xlink:href="#block"/><use x="568" y="1003" xlink:href="#block"/><use x="742" y="1003" xlink:href="#block"/><use x="800" y="1003" xlink:href="#block"/><use x="829" y="1003" xlink:href="#block"/><use x="916" y="1003" xlink:href="#block"/><use x="945" y="1003" xlink:href="#block"/><use x="1003" y="1003" xlink:href="#block"/><use x="1032" y="1003" xlink:href="#block"/><use x="1061" y="1003" xlink:href="#block"/><use x="1090" y="1003" xlink:href="#block"/><use x="46" y="1032" xlink:href="#block"/><use x="104" y="1032" xlink:href="#block"/><use x="133" y="1032" xlink:href="#block"/><use x="162" y="1032" xlink:href="#block"/><use x="220" y="1032" xlink:href="#block"/><use x="365" y="1032" xlink:href="#block"/><use x="394" y="1032" xlink:href="#block"/><use x="423" y="1032" xlink:href="#block"/><use x="452" y="1032" xlink:href="#block"/><use x="481" y="1032" xlink:href="#block"/><use x="655" y="1032" xlink:href="#block"/><use x="684" y="1032" xlink:href="#block"/><use x="771" y="1032" xlink:href="#block"/><use x="800" y="1032" xlink:href="#block"/><use x="916" y="1032" xlink:href="#block"/><use x="1003" y="1032" xlink:href="#block"/><use x="1032" y="1032" xlink:href="#block"/><use x="1090" y="1032" xlink:href="#block"/><use x="46" y="1061" xlink:href="#block"/><use x="220" y="1061" xlink:href="#block"/><use x="307" y="1061" xlink:href="#block"/><use x="452" y="1061" xlink:href="#block"/><use x="510" y="1061" xlink:href="#block"/><use x="597" y="1061" xlink:href="#block"/><use x="626" y="1061" xlink:href="#block"/><use x="655" y="1061" xlink:href="#block"/><use x="742" y="1061" xlink:href="#block"/><use x="829" y="1061" xlink:href="#block"/><use x="916" y="1061" xlink:href="#block"/><use x="945" y="1061" xlink:href="#block"/><use x="974" y="1061" xlink:href="#block"/><use x="1003" y="1061" xlink:href="#block"/><use x="1061" y="1061" xlink:href="#block"/><use x="46" y="1090" xlink:href="#block"/><use x="75" y="1090" xlink:href="#block"/><use x="104" y="1090" xlink:href="#block"/><use x="133" y="1090" xlink:href="#block"/><use x="162" y="1090" xlink:href="#block"/><use x="191" y="1090" xlink:href="#block"/><use x="220" y="1090" xlink:href="#block"/><use x="452" y="1090" xlink:href="#block"/><use x="510" y="1090" xlink:href="#block"/><use x="539" y="1090" xlink:href="#block"/><use x="626" y="1090" xlink:href="#block"/><use x="684" y="1090" xlink:href="#block"/><use x="713" y="1090" xlink:href="#block"/><use x="742" y="1090" xlink:href="#block"/><use x="771" y="1090" xlink:href="#block"/><use x="887" y="1090" xlink:href="#block"/><use x="974" y="1090" xlink:href="#block"/><use x="1003" y="1090" xlink:href="#block"/><use x="1032" y="1090" xlink:href="#block"/><use x="1090" y="1090" xlink:href="#block"/></g></svg>
